<?xml version="1.0" encoding="utf-8" standalone="no"?>
<!DOCTYPE svg PUBLIC "-//W3C//DTD SVG 1.1//EN"
  "http://www.w3.org/Graphics/SVG/1.1/DTD/svg11.dtd">
<svg xmlns:xlink="http://www.w3.org/1999/xlink" width="432pt" height="288pt" viewBox="0 0 432 288" xmlns="http://www.w3.org/2000/svg" version="1.1">
 <metadata>
  <rdf:RDF xmlns:dc="http://purl.org/dc/elements/1.1/" xmlns:cc="http://creativecommons.org/ns#" xmlns:rdf="http://www.w3.org/1999/02/22-rdf-syntax-ns#">
   <cc:Work>
    <dc:type rdf:resource="http://purl.org/dc/dcmitype/StillImage"/>
    <dc:date>2023-11-08T10:10:13.943048</dc:date>
    <dc:format>image/svg+xml</dc:format>
    <dc:creator>
     <cc:Agent>
      <dc:title>Matplotlib v3.7.2, https://matplotlib.org/</dc:title>
     </cc:Agent>
    </dc:creator>
   </cc:Work>
  </rdf:RDF>
 </metadata>
 <defs>
  <style type="text/css">*{stroke-linejoin: round; stroke-linecap: butt}</style>
 </defs>
 <g id="figure_1">
  <g id="patch_1">
   <path d="M 0 288 
L 432 288 
L 432 0 
L 0 0 
z
" style="fill: #ffffff"/>
  </g>
  <g id="axes_1">
   <g id="patch_2">
    <path d="M 54 256.32 
L 388.8 256.32 
L 388.8 34.56 
L 54 34.56 
z
" style="fill: #ffffff"/>
   </g>
   <g id="patch_3">
    <path d="M 69.218182 256.32 
L 75.305455 256.32 
L 75.305455 245.746382 
L 69.218182 245.746382 
z
" clip-path="url(#p45430e8329)" style="fill: #1f77b4"/>
   </g>
   <g id="patch_4">
    <path d="M 75.305455 256.32 
L 81.392727 256.32 
L 81.392727 240.587739 
L 75.305455 240.587739 
z
" clip-path="url(#p45430e8329)" style="fill: #1f77b4"/>
   </g>
   <g id="patch_5">
    <path d="M 81.392727 256.32 
L 87.48 256.32 
L 87.48 236.406354 
L 81.392727 236.406354 
z
" clip-path="url(#p45430e8329)" style="fill: #1f77b4"/>
   </g>
   <g id="patch_6">
    <path d="M 87.48 256.32 
L 93.567273 256.32 
L 93.567273 232.609464 
L 87.48 232.609464 
z
" clip-path="url(#p45430e8329)" style="fill: #1f77b4"/>
   </g>
   <g id="patch_7">
    <path d="M 93.567273 256.32 
L 99.654545 256.32 
L 99.654545 230.510761 
L 93.567273 230.510761 
z
" clip-path="url(#p45430e8329)" style="fill: #1f77b4"/>
   </g>
   <g id="patch_8">
    <path d="M 99.654545 256.32 
L 105.741818 256.32 
L 105.741818 225.720592 
L 99.654545 225.720592 
z
" clip-path="url(#p45430e8329)" style="fill: #1f77b4"/>
   </g>
   <g id="patch_9">
    <path d="M 105.741818 256.32 
L 111.829091 256.32 
L 111.829091 219.648772 
L 105.741818 219.648772 
z
" clip-path="url(#p45430e8329)" style="fill: #1f77b4"/>
   </g>
   <g id="patch_10">
    <path d="M 111.829091 256.32 
L 117.916364 256.32 
L 117.916364 216.716996 
L 111.829091 216.716996 
z
" clip-path="url(#p45430e8329)" style="fill: #1f77b4"/>
   </g>
   <g id="patch_11">
    <path d="M 117.916364 256.32 
L 124.003636 256.32 
L 124.003636 208.226061 
L 117.916364 208.226061 
z
" clip-path="url(#p45430e8329)" style="fill: #1f77b4"/>
   </g>
   <g id="patch_12">
    <path d="M 124.003636 256.32 
L 130.090909 256.32 
L 130.090909 203.291706 
L 124.003636 203.291706 
z
" clip-path="url(#p45430e8329)" style="fill: #1f77b4"/>
   </g>
   <g id="patch_13">
    <path d="M 130.090909 256.32 
L 136.178182 256.32 
L 136.178182 193.118604 
L 130.090909 193.118604 
z
" clip-path="url(#p45430e8329)" style="fill: #1f77b4"/>
   </g>
   <g id="patch_14">
    <path d="M 136.178182 256.32 
L 142.265455 256.32 
L 142.265455 178.796159 
L 136.178182 178.796159 
z
" clip-path="url(#p45430e8329)" style="fill: #1f77b4"/>
   </g>
   <g id="patch_15">
    <path d="M 142.265455 256.32 
L 148.352727 256.32 
L 148.352727 162.951753 
L 142.265455 162.951753 
z
" clip-path="url(#p45430e8329)" style="fill: #1f77b4"/>
   </g>
   <g id="patch_16">
    <path d="M 148.352727 256.32 
L 154.44 256.32 
L 154.44 153.435497 
L 148.352727 153.435497 
z
" clip-path="url(#p45430e8329)" style="fill: #1f77b4"/>
   </g>
   <g id="patch_17">
    <path d="M 154.44 256.32 
L 160.527273 256.32 
L 160.527273 141.195734 
L 154.44 141.195734 
z
" clip-path="url(#p45430e8329)" style="fill: #1f77b4"/>
   </g>
   <g id="patch_18">
    <path d="M 160.527273 256.32 
L 166.614545 256.32 
L 166.614545 111.092965 
L 160.527273 111.092965 
z
" clip-path="url(#p45430e8329)" style="fill: #1f77b4"/>
   </g>
   <g id="patch_19">
    <path d="M 166.614545 256.32 
L 172.701818 256.32 
L 172.701818 69.16697 
L 166.614545 69.16697 
z
" clip-path="url(#p45430e8329)" style="fill: #1f77b4"/>
   </g>
   <g id="patch_20">
    <path d="M 172.701818 256.32 
L 178.789091 256.32 
L 178.789091 76.087883 
L 172.701818 76.087883 
z
" clip-path="url(#p45430e8329)" style="fill: #1f77b4"/>
   </g>
   <g id="patch_21">
    <path d="M 178.789091 256.32 
L 184.876364 256.32 
L 184.876364 94.639775 
L 178.789091 94.639775 
z
" clip-path="url(#p45430e8329)" style="fill: #1f77b4"/>
   </g>
   <g id="patch_22">
    <path d="M 184.876364 256.32 
L 190.963636 256.32 
L 190.963636 121.85883 
L 184.876364 121.85883 
z
" clip-path="url(#p45430e8329)" style="fill: #1f77b4"/>
   </g>
   <g id="patch_23">
    <path d="M 190.963636 256.32 
L 197.050909 256.32 
L 197.050909 144.656191 
L 190.963636 144.656191 
z
" clip-path="url(#p45430e8329)" style="fill: #1f77b4"/>
   </g>
   <g id="patch_24">
    <path d="M 197.050909 256.32 
L 203.138182 256.32 
L 203.138182 150.663928 
L 197.050909 150.663928 
z
" clip-path="url(#p45430e8329)" style="fill: #1f77b4"/>
   </g>
   <g id="patch_25">
    <path d="M 203.138182 256.32 
L 209.225455 256.32 
L 209.225455 152.778651 
L 203.138182 152.778651 
z
" clip-path="url(#p45430e8329)" style="fill: #1f77b4"/>
   </g>
   <g id="patch_26">
    <path d="M 209.225455 256.32 
L 215.312727 256.32 
L 215.312727 117.196826 
L 209.225455 117.196826 
z
" clip-path="url(#p45430e8329)" style="fill: #1f77b4"/>
   </g>
   <g id="patch_27">
    <path d="M 215.312727 256.32 
L 221.4 256.32 
L 221.4 147.860317 
L 215.312727 147.860317 
z
" clip-path="url(#p45430e8329)" style="fill: #1f77b4"/>
   </g>
   <g id="patch_28">
    <path d="M 221.4 256.32 
L 227.487273 256.32 
L 227.487273 45.12 
L 221.4 45.12 
z
" clip-path="url(#p45430e8329)" style="fill: #1f77b4"/>
   </g>
   <g id="patch_29">
    <path d="M 227.487273 256.32 
L 233.574545 256.32 
L 233.574545 123.893451 
L 227.487273 123.893451 
z
" clip-path="url(#p45430e8329)" style="fill: #1f77b4"/>
   </g>
   <g id="patch_30">
    <path d="M 233.574545 256.32 
L 239.661818 256.32 
L 239.661818 151.945578 
L 233.574545 151.945578 
z
" clip-path="url(#p45430e8329)" style="fill: #1f77b4"/>
   </g>
   <g id="patch_31">
    <path d="M 239.661818 256.32 
L 245.749091 256.32 
L 245.749091 148.276854 
L 239.661818 148.276854 
z
" clip-path="url(#p45430e8329)" style="fill: #1f77b4"/>
   </g>
   <g id="patch_32">
    <path d="M 245.749091 256.32 
L 251.836364 256.32 
L 251.836364 141.275837 
L 245.749091 141.275837 
z
" clip-path="url(#p45430e8329)" style="fill: #1f77b4"/>
   </g>
   <g id="patch_33">
    <path d="M 251.836364 256.32 
L 257.923636 256.32 
L 257.923636 115.034041 
L 251.836364 115.034041 
z
" clip-path="url(#p45430e8329)" style="fill: #1f77b4"/>
   </g>
   <g id="patch_34">
    <path d="M 257.923636 256.32 
L 264.010909 256.32 
L 264.010909 87.206202 
L 257.923636 87.206202 
z
" clip-path="url(#p45430e8329)" style="fill: #1f77b4"/>
   </g>
   <g id="patch_35">
    <path d="M 264.010909 256.32 
L 270.098182 256.32 
L 270.098182 71.345776 
L 264.010909 71.345776 
z
" clip-path="url(#p45430e8329)" style="fill: #1f77b4"/>
   </g>
   <g id="patch_36">
    <path d="M 270.098182 256.32 
L 276.185455 256.32 
L 276.185455 70.368517 
L 270.098182 70.368517 
z
" clip-path="url(#p45430e8329)" style="fill: #1f77b4"/>
   </g>
   <g id="patch_37">
    <path d="M 276.185455 256.32 
L 282.272727 256.32 
L 282.272727 110.45214 
L 276.185455 110.45214 
z
" clip-path="url(#p45430e8329)" style="fill: #1f77b4"/>
   </g>
   <g id="patch_38">
    <path d="M 282.272727 256.32 
L 288.36 256.32 
L 288.36 136.661895 
L 282.272727 136.661895 
z
" clip-path="url(#p45430e8329)" style="fill: #1f77b4"/>
   </g>
   <g id="patch_39">
    <path d="M 288.36 256.32 
L 294.447273 256.32 
L 294.447273 148.869617 
L 288.36 148.869617 
z
" clip-path="url(#p45430e8329)" style="fill: #1f77b4"/>
   </g>
   <g id="patch_40">
    <path d="M 294.447273 256.32 
L 300.534545 256.32 
L 300.534545 158.802409 
L 294.447273 158.802409 
z
" clip-path="url(#p45430e8329)" style="fill: #1f77b4"/>
   </g>
   <g id="patch_41">
    <path d="M 300.534545 256.32 
L 306.621818 256.32 
L 306.621818 176.232857 
L 300.534545 176.232857 
z
" clip-path="url(#p45430e8329)" style="fill: #1f77b4"/>
   </g>
   <g id="patch_42">
    <path d="M 306.621818 256.32 
L 312.709091 256.32 
L 312.709091 191.22817 
L 306.621818 191.22817 
z
" clip-path="url(#p45430e8329)" style="fill: #1f77b4"/>
   </g>
   <g id="patch_43">
    <path d="M 312.709091 256.32 
L 318.796364 256.32 
L 318.796364 198.821949 
L 312.709091 198.821949 
z
" clip-path="url(#p45430e8329)" style="fill: #1f77b4"/>
   </g>
   <g id="patch_44">
    <path d="M 318.796364 256.32 
L 324.883636 256.32 
L 324.883636 203.019355 
L 318.796364 203.019355 
z
" clip-path="url(#p45430e8329)" style="fill: #1f77b4"/>
   </g>
   <g id="patch_45">
    <path d="M 324.883636 256.32 
L 330.970909 256.32 
L 330.970909 212.984189 
L 324.883636 212.984189 
z
" clip-path="url(#p45430e8329)" style="fill: #1f77b4"/>
   </g>
   <g id="patch_46">
    <path d="M 330.970909 256.32 
L 337.058182 256.32 
L 337.058182 216.012088 
L 330.970909 216.012088 
z
" clip-path="url(#p45430e8329)" style="fill: #1f77b4"/>
   </g>
   <g id="patch_47">
    <path d="M 337.058182 256.32 
L 343.145455 256.32 
L 343.145455 222.740754 
L 337.058182 222.740754 
z
" clip-path="url(#p45430e8329)" style="fill: #1f77b4"/>
   </g>
   <g id="patch_48">
    <path d="M 343.145455 256.32 
L 349.232727 256.32 
L 349.232727 227.434799 
L 343.145455 227.434799 
z
" clip-path="url(#p45430e8329)" style="fill: #1f77b4"/>
   </g>
   <g id="patch_49">
    <path d="M 349.232727 256.32 
L 355.32 256.32 
L 355.32 230.430658 
L 349.232727 230.430658 
z
" clip-path="url(#p45430e8329)" style="fill: #1f77b4"/>
   </g>
   <g id="patch_50">
    <path d="M 355.32 256.32 
L 361.407273 256.32 
L 361.407273 234.307651 
L 355.32 234.307651 
z
" clip-path="url(#p45430e8329)" style="fill: #1f77b4"/>
   </g>
   <g id="patch_51">
    <path d="M 361.407273 256.32 
L 367.494545 256.32 
L 367.494545 239.193944 
L 361.407273 239.193944 
z
" clip-path="url(#p45430e8329)" style="fill: #1f77b4"/>
   </g>
   <g id="patch_52">
    <path d="M 367.494545 256.32 
L 373.581818 256.32 
L 373.581818 245.249743 
L 367.494545 245.249743 
z
" clip-path="url(#p45430e8329)" style="fill: #1f77b4"/>
   </g>
   <g id="patch_53">
    <path d="M 69.218182 256.32 
L 75.305455 256.32 
L 75.305455 255.711216 
L 69.218182 255.711216 
z
" clip-path="url(#p45430e8329)" style="fill: #ff7f0e"/>
   </g>
   <g id="patch_54">
    <path d="M 75.305455 256.32 
L 81.392727 256.32 
L 81.392727 255.406824 
L 75.305455 255.406824 
z
" clip-path="url(#p45430e8329)" style="fill: #ff7f0e"/>
   </g>
   <g id="patch_55">
    <path d="M 81.392727 256.32 
L 87.48 256.32 
L 87.48 254.765999 
L 81.392727 254.765999 
z
" clip-path="url(#p45430e8329)" style="fill: #ff7f0e"/>
   </g>
   <g id="patch_56">
    <path d="M 87.48 256.32 
L 93.567273 256.32 
L 93.567273 254.685895 
L 87.48 254.685895 
z
" clip-path="url(#p45430e8329)" style="fill: #ff7f0e"/>
   </g>
   <g id="patch_57">
    <path d="M 93.567273 256.32 
L 99.654545 256.32 
L 99.654545 254.942226 
L 93.567273 254.942226 
z
" clip-path="url(#p45430e8329)" style="fill: #ff7f0e"/>
   </g>
   <g id="patch_58">
    <path d="M 99.654545 256.32 
L 105.741818 256.32 
L 105.741818 254.221297 
L 99.654545 254.221297 
z
" clip-path="url(#p45430e8329)" style="fill: #ff7f0e"/>
   </g>
   <g id="patch_59">
    <path d="M 105.741818 256.32 
L 111.829091 256.32 
L 111.829091 253.580472 
L 105.741818 253.580472 
z
" clip-path="url(#p45430e8329)" style="fill: #ff7f0e"/>
   </g>
   <g id="patch_60">
    <path d="M 111.829091 256.32 
L 117.916364 256.32 
L 117.916364 253.388224 
L 111.829091 253.388224 
z
" clip-path="url(#p45430e8329)" style="fill: #ff7f0e"/>
   </g>
   <g id="patch_61">
    <path d="M 117.916364 256.32 
L 124.003636 256.32 
L 124.003636 252.234739 
L 117.916364 252.234739 
z
" clip-path="url(#p45430e8329)" style="fill: #ff7f0e"/>
   </g>
   <g id="patch_62">
    <path d="M 124.003636 256.32 
L 130.090909 256.32 
L 130.090909 251.898305 
L 124.003636 251.898305 
z
" clip-path="url(#p45430e8329)" style="fill: #ff7f0e"/>
   </g>
   <g id="patch_63">
    <path d="M 130.090909 256.32 
L 136.178182 256.32 
L 136.178182 250.792882 
L 130.090909 250.792882 
z
" clip-path="url(#p45430e8329)" style="fill: #ff7f0e"/>
   </g>
   <g id="patch_64">
    <path d="M 136.178182 256.32 
L 142.265455 256.32 
L 142.265455 249.158777 
L 136.178182 249.158777 
z
" clip-path="url(#p45430e8329)" style="fill: #ff7f0e"/>
   </g>
   <g id="patch_65">
    <path d="M 142.265455 256.32 
L 148.352727 256.32 
L 148.352727 247.156198 
L 142.265455 247.156198 
z
" clip-path="url(#p45430e8329)" style="fill: #ff7f0e"/>
   </g>
   <g id="patch_66">
    <path d="M 148.352727 256.32 
L 154.44 256.32 
L 154.44 246.066795 
L 148.352727 246.066795 
z
" clip-path="url(#p45430e8329)" style="fill: #ff7f0e"/>
   </g>
   <g id="patch_67">
    <path d="M 154.44 256.32 
L 160.527273 256.32 
L 160.527273 245.586176 
L 154.44 245.586176 
z
" clip-path="url(#p45430e8329)" style="fill: #ff7f0e"/>
   </g>
   <g id="patch_68">
    <path d="M 160.527273 256.32 
L 166.614545 256.32 
L 166.614545 243.936051 
L 160.527273 243.936051 
z
" clip-path="url(#p45430e8329)" style="fill: #ff7f0e"/>
   </g>
   <g id="patch_69">
    <path d="M 166.614545 256.32 
L 172.701818 256.32 
L 172.701818 240.187223 
L 166.614545 240.187223 
z
" clip-path="url(#p45430e8329)" style="fill: #ff7f0e"/>
   </g>
   <g id="patch_70">
    <path d="M 172.701818 256.32 
L 178.789091 256.32 
L 178.789091 240.972234 
L 172.701818 240.972234 
z
" clip-path="url(#p45430e8329)" style="fill: #ff7f0e"/>
   </g>
   <g id="patch_71">
    <path d="M 178.789091 256.32 
L 184.876364 256.32 
L 184.876364 239.161902 
L 178.789091 239.161902 
z
" clip-path="url(#p45430e8329)" style="fill: #ff7f0e"/>
   </g>
   <g id="patch_72">
    <path d="M 184.876364 256.32 
L 190.963636 256.32 
L 190.963636 241.004275 
L 184.876364 241.004275 
z
" clip-path="url(#p45430e8329)" style="fill: #ff7f0e"/>
   </g>
   <g id="patch_73">
    <path d="M 190.963636 256.32 
L 197.050909 256.32 
L 197.050909 241.068358 
L 190.963636 241.068358 
z
" clip-path="url(#p45430e8329)" style="fill: #ff7f0e"/>
   </g>
   <g id="patch_74">
    <path d="M 197.050909 256.32 
L 203.138182 256.32 
L 203.138182 239.690583 
L 197.050909 239.690583 
z
" clip-path="url(#p45430e8329)" style="fill: #ff7f0e"/>
   </g>
   <g id="patch_75">
    <path d="M 203.138182 256.32 
L 209.225455 256.32 
L 209.225455 241.180502 
L 203.138182 241.180502 
z
" clip-path="url(#p45430e8329)" style="fill: #ff7f0e"/>
   </g>
   <g id="patch_76">
    <path d="M 209.225455 256.32 
L 215.312727 256.32 
L 215.312727 232.208948 
L 209.225455 232.208948 
z
" clip-path="url(#p45430e8329)" style="fill: #ff7f0e"/>
   </g>
   <g id="patch_77">
    <path d="M 215.312727 256.32 
L 221.4 256.32 
L 221.4 243.519515 
L 215.312727 243.519515 
z
" clip-path="url(#p45430e8329)" style="fill: #ff7f0e"/>
   </g>
   <g id="patch_78">
    <path d="M 221.4 256.32 
L 227.487273 256.32 
L 227.487273 220.09735 
L 221.4 220.09735 
z
" clip-path="url(#p45430e8329)" style="fill: #ff7f0e"/>
   </g>
   <g id="patch_79">
    <path d="M 227.487273 256.32 
L 233.574545 256.32 
L 233.574545 235.028579 
L 227.487273 235.028579 
z
" clip-path="url(#p45430e8329)" style="fill: #ff7f0e"/>
   </g>
   <g id="patch_80">
    <path d="M 233.574545 256.32 
L 239.661818 256.32 
L 239.661818 241.853369 
L 233.574545 241.853369 
z
" clip-path="url(#p45430e8329)" style="fill: #ff7f0e"/>
   </g>
   <g id="patch_81">
    <path d="M 239.661818 256.32 
L 245.749091 256.32 
L 245.749091 242.366029 
L 239.661818 242.366029 
z
" clip-path="url(#p45430e8329)" style="fill: #ff7f0e"/>
   </g>
   <g id="patch_82">
    <path d="M 245.749091 256.32 
L 251.836364 256.32 
L 251.836364 243.743803 
L 245.749091 243.743803 
z
" clip-path="url(#p45430e8329)" style="fill: #ff7f0e"/>
   </g>
   <g id="patch_83">
    <path d="M 251.836364 256.32 
L 257.923636 256.32 
L 257.923636 242.750524 
L 251.836364 242.750524 
z
" clip-path="url(#p45430e8329)" style="fill: #ff7f0e"/>
   </g>
   <g id="patch_84">
    <path d="M 257.923636 256.32 
L 264.010909 256.32 
L 264.010909 241.340708 
L 257.923636 241.340708 
z
" clip-path="url(#p45430e8329)" style="fill: #ff7f0e"/>
   </g>
   <g id="patch_85">
    <path d="M 264.010909 256.32 
L 270.098182 256.32 
L 270.098182 241.837348 
L 264.010909 241.837348 
z
" clip-path="url(#p45430e8329)" style="fill: #ff7f0e"/>
   </g>
   <g id="patch_86">
    <path d="M 270.098182 256.32 
L 276.185455 256.32 
L 276.185455 240.828048 
L 270.098182 240.828048 
z
" clip-path="url(#p45430e8329)" style="fill: #ff7f0e"/>
   </g>
   <g id="patch_87">
    <path d="M 276.185455 256.32 
L 282.272727 256.32 
L 282.272727 243.471453 
L 276.185455 243.471453 
z
" clip-path="url(#p45430e8329)" style="fill: #ff7f0e"/>
   </g>
   <g id="patch_88">
    <path d="M 282.272727 256.32 
L 288.36 256.32 
L 288.36 244.352587 
L 282.272727 244.352587 
z
" clip-path="url(#p45430e8329)" style="fill: #ff7f0e"/>
   </g>
   <g id="patch_89">
    <path d="M 288.36 256.32 
L 294.447273 256.32 
L 294.447273 246.419249 
L 288.36 246.419249 
z
" clip-path="url(#p45430e8329)" style="fill: #ff7f0e"/>
   </g>
   <g id="patch_90">
    <path d="M 294.447273 256.32 
L 300.534545 256.32 
L 300.534545 246.6916 
L 294.447273 246.6916 
z
" clip-path="url(#p45430e8329)" style="fill: #ff7f0e"/>
   </g>
   <g id="patch_91">
    <path d="M 300.534545 256.32 
L 306.621818 256.32 
L 306.621818 248.918468 
L 300.534545 248.918468 
z
" clip-path="url(#p45430e8329)" style="fill: #ff7f0e"/>
   </g>
   <g id="patch_92">
    <path d="M 306.621818 256.32 
L 312.709091 256.32 
L 312.709091 250.664717 
L 306.621818 250.664717 
z
" clip-path="url(#p45430e8329)" style="fill: #ff7f0e"/>
   </g>
   <g id="patch_93">
    <path d="M 312.709091 256.32 
L 318.796364 256.32 
L 318.796364 251.129315 
L 312.709091 251.129315 
z
" clip-path="url(#p45430e8329)" style="fill: #ff7f0e"/>
   </g>
   <g id="patch_94">
    <path d="M 318.796364 256.32 
L 324.883636 256.32 
L 324.883636 251.25748 
L 318.796364 251.25748 
z
" clip-path="url(#p45430e8329)" style="fill: #ff7f0e"/>
   </g>
   <g id="patch_95">
    <path d="M 324.883636 256.32 
L 330.970909 256.32 
L 330.970909 252.923626 
L 324.883636 252.923626 
z
" clip-path="url(#p45430e8329)" style="fill: #ff7f0e"/>
   </g>
   <g id="patch_96">
    <path d="M 330.970909 256.32 
L 337.058182 256.32 
L 337.058182 253.372204 
L 330.970909 253.372204 
z
" clip-path="url(#p45430e8329)" style="fill: #ff7f0e"/>
   </g>
   <g id="patch_97">
    <path d="M 337.058182 256.32 
L 343.145455 256.32 
L 343.145455 253.692616 
L 337.058182 253.692616 
z
" clip-path="url(#p45430e8329)" style="fill: #ff7f0e"/>
   </g>
   <g id="patch_98">
    <path d="M 343.145455 256.32 
L 349.232727 256.32 
L 349.232727 254.814061 
L 343.145455 254.814061 
z
" clip-path="url(#p45430e8329)" style="fill: #ff7f0e"/>
   </g>
   <g id="patch_99">
    <path d="M 349.232727 256.32 
L 355.32 256.32 
L 355.32 254.653854 
L 349.232727 254.653854 
z
" clip-path="url(#p45430e8329)" style="fill: #ff7f0e"/>
   </g>
   <g id="patch_100">
    <path d="M 355.32 256.32 
L 361.407273 256.32 
L 361.407273 255.134473 
L 355.32 255.134473 
z
" clip-path="url(#p45430e8329)" style="fill: #ff7f0e"/>
   </g>
   <g id="patch_101">
    <path d="M 361.407273 256.32 
L 367.494545 256.32 
L 367.494545 255.534989 
L 361.407273 255.534989 
z
" clip-path="url(#p45430e8329)" style="fill: #ff7f0e"/>
   </g>
   <g id="patch_102">
    <path d="M 367.494545 256.32 
L 373.581818 256.32 
L 373.581818 255.679175 
L 367.494545 255.679175 
z
" clip-path="url(#p45430e8329)" style="fill: #ff7f0e"/>
   </g>
   <g id="matplotlib.axis_1">
    <g id="xtick_1">
     <g id="line2d_1">
      <defs>
       <path id="mf5e507d002" d="M 0 0 
L 0 9 
" style="stroke: #000000; stroke-width: 1.875"/>
      </defs>
      <g>
       <use xlink:href="#mf5e507d002" x="94.581818" y="256.32" style="stroke: #000000; stroke-width: 1.875"/>
      </g>
     </g>
     <g id="text_1">
      <!-- −75 -->
      <g transform="translate(81.919006 277.938125) scale(0.12 -0.12)">
       <defs>
        <path id="DejaVuSans-2212" d="M 678 2272 
L 4684 2272 
L 4684 1741 
L 678 1741 
L 678 2272 
z
" transform="scale(0.015625)"/>
        <path id="DejaVuSans-37" d="M 525 4666 
L 3525 4666 
L 3525 4397 
L 1831 0 
L 1172 0 
L 2766 4134 
L 525 4134 
L 525 4666 
z
" transform="scale(0.015625)"/>
        <path id="DejaVuSans-35" d="M 691 4666 
L 3169 4666 
L 3169 4134 
L 1269 4134 
L 1269 2991 
Q 1406 3038 1543 3061 
Q 1681 3084 1819 3084 
Q 2600 3084 3056 2656 
Q 3513 2228 3513 1497 
Q 3513 744 3044 326 
Q 2575 -91 1722 -91 
Q 1428 -91 1123 -41 
Q 819 9 494 109 
L 494 744 
Q 775 591 1075 516 
Q 1375 441 1709 441 
Q 2250 441 2565 725 
Q 2881 1009 2881 1497 
Q 2881 1984 2565 2268 
Q 2250 2553 1709 2553 
Q 1456 2553 1204 2497 
Q 953 2441 691 2322 
L 691 4666 
z
" transform="scale(0.015625)"/>
       </defs>
       <use xlink:href="#DejaVuSans-2212"/>
       <use xlink:href="#DejaVuSans-37" x="83.789062"/>
       <use xlink:href="#DejaVuSans-35" x="147.412109"/>
      </g>
     </g>
    </g>
    <g id="xtick_2">
     <g id="line2d_2">
      <g>
       <use xlink:href="#mf5e507d002" x="136.854545" y="256.32" style="stroke: #000000; stroke-width: 1.875"/>
      </g>
     </g>
     <g id="text_2">
      <!-- −50 -->
      <g transform="translate(124.191733 277.938125) scale(0.12 -0.12)">
       <defs>
        <path id="DejaVuSans-30" d="M 2034 4250 
Q 1547 4250 1301 3770 
Q 1056 3291 1056 2328 
Q 1056 1369 1301 889 
Q 1547 409 2034 409 
Q 2525 409 2770 889 
Q 3016 1369 3016 2328 
Q 3016 3291 2770 3770 
Q 2525 4250 2034 4250 
z
M 2034 4750 
Q 2819 4750 3233 4129 
Q 3647 3509 3647 2328 
Q 3647 1150 3233 529 
Q 2819 -91 2034 -91 
Q 1250 -91 836 529 
Q 422 1150 422 2328 
Q 422 3509 836 4129 
Q 1250 4750 2034 4750 
z
" transform="scale(0.015625)"/>
       </defs>
       <use xlink:href="#DejaVuSans-2212"/>
       <use xlink:href="#DejaVuSans-35" x="83.789062"/>
       <use xlink:href="#DejaVuSans-30" x="147.412109"/>
      </g>
     </g>
    </g>
    <g id="xtick_3">
     <g id="line2d_3">
      <g>
       <use xlink:href="#mf5e507d002" x="179.127273" y="256.32" style="stroke: #000000; stroke-width: 1.875"/>
      </g>
     </g>
     <g id="text_3">
      <!-- −25 -->
      <g transform="translate(166.46446 277.938125) scale(0.12 -0.12)">
       <defs>
        <path id="DejaVuSans-32" d="M 1228 531 
L 3431 531 
L 3431 0 
L 469 0 
L 469 531 
Q 828 903 1448 1529 
Q 2069 2156 2228 2338 
Q 2531 2678 2651 2914 
Q 2772 3150 2772 3378 
Q 2772 3750 2511 3984 
Q 2250 4219 1831 4219 
Q 1534 4219 1204 4116 
Q 875 4013 500 3803 
L 500 4441 
Q 881 4594 1212 4672 
Q 1544 4750 1819 4750 
Q 2544 4750 2975 4387 
Q 3406 4025 3406 3419 
Q 3406 3131 3298 2873 
Q 3191 2616 2906 2266 
Q 2828 2175 2409 1742 
Q 1991 1309 1228 531 
z
" transform="scale(0.015625)"/>
       </defs>
       <use xlink:href="#DejaVuSans-2212"/>
       <use xlink:href="#DejaVuSans-32" x="83.789062"/>
       <use xlink:href="#DejaVuSans-35" x="147.412109"/>
      </g>
     </g>
    </g>
    <g id="xtick_4">
     <g id="line2d_4">
      <g>
       <use xlink:href="#mf5e507d002" x="221.4" y="256.32" style="stroke: #000000; stroke-width: 1.875"/>
      </g>
     </g>
     <g id="text_4">
      <!-- 0 -->
      <g transform="translate(217.5825 277.938125) scale(0.12 -0.12)">
       <use xlink:href="#DejaVuSans-30"/>
      </g>
     </g>
    </g>
    <g id="xtick_5">
     <g id="line2d_5">
      <g>
       <use xlink:href="#mf5e507d002" x="263.672727" y="256.32" style="stroke: #000000; stroke-width: 1.875"/>
      </g>
     </g>
     <g id="text_5">
      <!-- 25 -->
      <g transform="translate(256.037727 277.938125) scale(0.12 -0.12)">
       <use xlink:href="#DejaVuSans-32"/>
       <use xlink:href="#DejaVuSans-35" x="63.623047"/>
      </g>
     </g>
    </g>
    <g id="xtick_6">
     <g id="line2d_6">
      <g>
       <use xlink:href="#mf5e507d002" x="305.945455" y="256.32" style="stroke: #000000; stroke-width: 1.875"/>
      </g>
     </g>
     <g id="text_6">
      <!-- 50 -->
      <g transform="translate(298.310455 277.938125) scale(0.12 -0.12)">
       <use xlink:href="#DejaVuSans-35"/>
       <use xlink:href="#DejaVuSans-30" x="63.623047"/>
      </g>
     </g>
    </g>
    <g id="xtick_7">
     <g id="line2d_7">
      <g>
       <use xlink:href="#mf5e507d002" x="348.218182" y="256.32" style="stroke: #000000; stroke-width: 1.875"/>
      </g>
     </g>
     <g id="text_7">
      <!-- 75 -->
      <g transform="translate(340.583182 277.938125) scale(0.12 -0.12)">
       <use xlink:href="#DejaVuSans-37"/>
       <use xlink:href="#DejaVuSans-35" x="63.623047"/>
      </g>
     </g>
    </g>
    <g id="text_8">
     <!-- Angle du tir (degrés) -->
     <g transform="translate(146.959875 295.9515) scale(0.144 -0.144)">
      <defs>
       <path id="DejaVuSans-41" d="M 2188 4044 
L 1331 1722 
L 3047 1722 
L 2188 4044 
z
M 1831 4666 
L 2547 4666 
L 4325 0 
L 3669 0 
L 3244 1197 
L 1141 1197 
L 716 0 
L 50 0 
L 1831 4666 
z
" transform="scale(0.015625)"/>
       <path id="DejaVuSans-6e" d="M 3513 2113 
L 3513 0 
L 2938 0 
L 2938 2094 
Q 2938 2591 2744 2837 
Q 2550 3084 2163 3084 
Q 1697 3084 1428 2787 
Q 1159 2491 1159 1978 
L 1159 0 
L 581 0 
L 581 3500 
L 1159 3500 
L 1159 2956 
Q 1366 3272 1645 3428 
Q 1925 3584 2291 3584 
Q 2894 3584 3203 3211 
Q 3513 2838 3513 2113 
z
" transform="scale(0.015625)"/>
       <path id="DejaVuSans-67" d="M 2906 1791 
Q 2906 2416 2648 2759 
Q 2391 3103 1925 3103 
Q 1463 3103 1205 2759 
Q 947 2416 947 1791 
Q 947 1169 1205 825 
Q 1463 481 1925 481 
Q 2391 481 2648 825 
Q 2906 1169 2906 1791 
z
M 3481 434 
Q 3481 -459 3084 -895 
Q 2688 -1331 1869 -1331 
Q 1566 -1331 1297 -1286 
Q 1028 -1241 775 -1147 
L 775 -588 
Q 1028 -725 1275 -790 
Q 1522 -856 1778 -856 
Q 2344 -856 2625 -561 
Q 2906 -266 2906 331 
L 2906 616 
Q 2728 306 2450 153 
Q 2172 0 1784 0 
Q 1141 0 747 490 
Q 353 981 353 1791 
Q 353 2603 747 3093 
Q 1141 3584 1784 3584 
Q 2172 3584 2450 3431 
Q 2728 3278 2906 2969 
L 2906 3500 
L 3481 3500 
L 3481 434 
z
" transform="scale(0.015625)"/>
       <path id="DejaVuSans-6c" d="M 603 4863 
L 1178 4863 
L 1178 0 
L 603 0 
L 603 4863 
z
" transform="scale(0.015625)"/>
       <path id="DejaVuSans-65" d="M 3597 1894 
L 3597 1613 
L 953 1613 
Q 991 1019 1311 708 
Q 1631 397 2203 397 
Q 2534 397 2845 478 
Q 3156 559 3463 722 
L 3463 178 
Q 3153 47 2828 -22 
Q 2503 -91 2169 -91 
Q 1331 -91 842 396 
Q 353 884 353 1716 
Q 353 2575 817 3079 
Q 1281 3584 2069 3584 
Q 2775 3584 3186 3129 
Q 3597 2675 3597 1894 
z
M 3022 2063 
Q 3016 2534 2758 2815 
Q 2500 3097 2075 3097 
Q 1594 3097 1305 2825 
Q 1016 2553 972 2059 
L 3022 2063 
z
" transform="scale(0.015625)"/>
       <path id="DejaVuSans-20" transform="scale(0.015625)"/>
       <path id="DejaVuSans-64" d="M 2906 2969 
L 2906 4863 
L 3481 4863 
L 3481 0 
L 2906 0 
L 2906 525 
Q 2725 213 2448 61 
Q 2172 -91 1784 -91 
Q 1150 -91 751 415 
Q 353 922 353 1747 
Q 353 2572 751 3078 
Q 1150 3584 1784 3584 
Q 2172 3584 2448 3432 
Q 2725 3281 2906 2969 
z
M 947 1747 
Q 947 1113 1208 752 
Q 1469 391 1925 391 
Q 2381 391 2643 752 
Q 2906 1113 2906 1747 
Q 2906 2381 2643 2742 
Q 2381 3103 1925 3103 
Q 1469 3103 1208 2742 
Q 947 2381 947 1747 
z
" transform="scale(0.015625)"/>
       <path id="DejaVuSans-75" d="M 544 1381 
L 544 3500 
L 1119 3500 
L 1119 1403 
Q 1119 906 1312 657 
Q 1506 409 1894 409 
Q 2359 409 2629 706 
Q 2900 1003 2900 1516 
L 2900 3500 
L 3475 3500 
L 3475 0 
L 2900 0 
L 2900 538 
Q 2691 219 2414 64 
Q 2138 -91 1772 -91 
Q 1169 -91 856 284 
Q 544 659 544 1381 
z
M 1991 3584 
L 1991 3584 
z
" transform="scale(0.015625)"/>
       <path id="DejaVuSans-74" d="M 1172 4494 
L 1172 3500 
L 2356 3500 
L 2356 3053 
L 1172 3053 
L 1172 1153 
Q 1172 725 1289 603 
Q 1406 481 1766 481 
L 2356 481 
L 2356 0 
L 1766 0 
Q 1100 0 847 248 
Q 594 497 594 1153 
L 594 3053 
L 172 3053 
L 172 3500 
L 594 3500 
L 594 4494 
L 1172 4494 
z
" transform="scale(0.015625)"/>
       <path id="DejaVuSans-69" d="M 603 3500 
L 1178 3500 
L 1178 0 
L 603 0 
L 603 3500 
z
M 603 4863 
L 1178 4863 
L 1178 4134 
L 603 4134 
L 603 4863 
z
" transform="scale(0.015625)"/>
       <path id="DejaVuSans-72" d="M 2631 2963 
Q 2534 3019 2420 3045 
Q 2306 3072 2169 3072 
Q 1681 3072 1420 2755 
Q 1159 2438 1159 1844 
L 1159 0 
L 581 0 
L 581 3500 
L 1159 3500 
L 1159 2956 
Q 1341 3275 1631 3429 
Q 1922 3584 2338 3584 
Q 2397 3584 2469 3576 
Q 2541 3569 2628 3553 
L 2631 2963 
z
" transform="scale(0.015625)"/>
       <path id="DejaVuSans-28" d="M 1984 4856 
Q 1566 4138 1362 3434 
Q 1159 2731 1159 2009 
Q 1159 1288 1364 580 
Q 1569 -128 1984 -844 
L 1484 -844 
Q 1016 -109 783 600 
Q 550 1309 550 2009 
Q 550 2706 781 3412 
Q 1013 4119 1484 4856 
L 1984 4856 
z
" transform="scale(0.015625)"/>
       <path id="DejaVuSans-e9" d="M 3597 1894 
L 3597 1613 
L 953 1613 
Q 991 1019 1311 708 
Q 1631 397 2203 397 
Q 2534 397 2845 478 
Q 3156 559 3463 722 
L 3463 178 
Q 3153 47 2828 -22 
Q 2503 -91 2169 -91 
Q 1331 -91 842 396 
Q 353 884 353 1716 
Q 353 2575 817 3079 
Q 1281 3584 2069 3584 
Q 2775 3584 3186 3129 
Q 3597 2675 3597 1894 
z
M 3022 2063 
Q 3016 2534 2758 2815 
Q 2500 3097 2075 3097 
Q 1594 3097 1305 2825 
Q 1016 2553 972 2059 
L 3022 2063 
z
M 2466 5119 
L 3088 5119 
L 2070 3944 
L 1591 3944 
L 2466 5119 
z
" transform="scale(0.015625)"/>
       <path id="DejaVuSans-73" d="M 2834 3397 
L 2834 2853 
Q 2591 2978 2328 3040 
Q 2066 3103 1784 3103 
Q 1356 3103 1142 2972 
Q 928 2841 928 2578 
Q 928 2378 1081 2264 
Q 1234 2150 1697 2047 
L 1894 2003 
Q 2506 1872 2764 1633 
Q 3022 1394 3022 966 
Q 3022 478 2636 193 
Q 2250 -91 1575 -91 
Q 1294 -91 989 -36 
Q 684 19 347 128 
L 347 722 
Q 666 556 975 473 
Q 1284 391 1588 391 
Q 1994 391 2212 530 
Q 2431 669 2431 922 
Q 2431 1156 2273 1281 
Q 2116 1406 1581 1522 
L 1381 1569 
Q 847 1681 609 1914 
Q 372 2147 372 2553 
Q 372 3047 722 3315 
Q 1072 3584 1716 3584 
Q 2034 3584 2315 3537 
Q 2597 3491 2834 3397 
z
" transform="scale(0.015625)"/>
       <path id="DejaVuSans-29" d="M 513 4856 
L 1013 4856 
Q 1481 4119 1714 3412 
Q 1947 2706 1947 2009 
Q 1947 1309 1714 600 
Q 1481 -109 1013 -844 
L 513 -844 
Q 928 -128 1133 580 
Q 1338 1288 1338 2009 
Q 1338 2731 1133 3434 
Q 928 4138 513 4856 
z
" transform="scale(0.015625)"/>
      </defs>
      <use xlink:href="#DejaVuSans-41"/>
      <use xlink:href="#DejaVuSans-6e" x="68.408203"/>
      <use xlink:href="#DejaVuSans-67" x="131.787109"/>
      <use xlink:href="#DejaVuSans-6c" x="195.263672"/>
      <use xlink:href="#DejaVuSans-65" x="223.046875"/>
      <use xlink:href="#DejaVuSans-20" x="284.570312"/>
      <use xlink:href="#DejaVuSans-64" x="316.357422"/>
      <use xlink:href="#DejaVuSans-75" x="379.833984"/>
      <use xlink:href="#DejaVuSans-20" x="443.212891"/>
      <use xlink:href="#DejaVuSans-74" x="475"/>
      <use xlink:href="#DejaVuSans-69" x="514.208984"/>
      <use xlink:href="#DejaVuSans-72" x="541.992188"/>
      <use xlink:href="#DejaVuSans-20" x="583.105469"/>
      <use xlink:href="#DejaVuSans-28" x="614.892578"/>
      <use xlink:href="#DejaVuSans-64" x="653.90625"/>
      <use xlink:href="#DejaVuSans-65" x="717.382812"/>
      <use xlink:href="#DejaVuSans-67" x="778.90625"/>
      <use xlink:href="#DejaVuSans-72" x="842.382812"/>
      <use xlink:href="#DejaVuSans-e9" x="881.246094"/>
      <use xlink:href="#DejaVuSans-73" x="942.769531"/>
      <use xlink:href="#DejaVuSans-29" x="994.869141"/>
     </g>
    </g>
   </g>
   <g id="matplotlib.axis_2">
    <g id="ytick_1">
     <g id="line2d_8">
      <defs>
       <path id="m1346251397" d="M 0 0 
L -9 0 
" style="stroke: #000000; stroke-width: 1.875"/>
      </defs>
      <g>
       <use xlink:href="#m1346251397" x="54" y="256.32" style="stroke: #000000; stroke-width: 1.875"/>
      </g>
     </g>
     <g id="text_9">
      <!-- 0 -->
      <g transform="translate(33.865 260.879063) scale(0.12 -0.12)">
       <use xlink:href="#DejaVuSans-30"/>
      </g>
     </g>
    </g>
    <g id="ytick_2">
     <g id="line2d_9">
      <g>
       <use xlink:href="#m1346251397" x="54" y="224.278735" style="stroke: #000000; stroke-width: 1.875"/>
      </g>
     </g>
     <g id="text_10">
      <!-- 2000 -->
      <g transform="translate(10.96 228.837797) scale(0.12 -0.12)">
       <use xlink:href="#DejaVuSans-32"/>
       <use xlink:href="#DejaVuSans-30" x="63.623047"/>
       <use xlink:href="#DejaVuSans-30" x="127.246094"/>
       <use xlink:href="#DejaVuSans-30" x="190.869141"/>
      </g>
     </g>
    </g>
    <g id="ytick_3">
     <g id="line2d_10">
      <g>
       <use xlink:href="#m1346251397" x="54" y="192.237469" style="stroke: #000000; stroke-width: 1.875"/>
      </g>
     </g>
     <g id="text_11">
      <!-- 4000 -->
      <g transform="translate(10.96 196.796532) scale(0.12 -0.12)">
       <defs>
        <path id="DejaVuSans-34" d="M 2419 4116 
L 825 1625 
L 2419 1625 
L 2419 4116 
z
M 2253 4666 
L 3047 4666 
L 3047 1625 
L 3713 1625 
L 3713 1100 
L 3047 1100 
L 3047 0 
L 2419 0 
L 2419 1100 
L 313 1100 
L 313 1709 
L 2253 4666 
z
" transform="scale(0.015625)"/>
       </defs>
       <use xlink:href="#DejaVuSans-34"/>
       <use xlink:href="#DejaVuSans-30" x="63.623047"/>
       <use xlink:href="#DejaVuSans-30" x="127.246094"/>
       <use xlink:href="#DejaVuSans-30" x="190.869141"/>
      </g>
     </g>
    </g>
    <g id="ytick_4">
     <g id="line2d_11">
      <g>
       <use xlink:href="#m1346251397" x="54" y="160.196204" style="stroke: #000000; stroke-width: 1.875"/>
      </g>
     </g>
     <g id="text_12">
      <!-- 6000 -->
      <g transform="translate(10.96 164.755267) scale(0.12 -0.12)">
       <defs>
        <path id="DejaVuSans-36" d="M 2113 2584 
Q 1688 2584 1439 2293 
Q 1191 2003 1191 1497 
Q 1191 994 1439 701 
Q 1688 409 2113 409 
Q 2538 409 2786 701 
Q 3034 994 3034 1497 
Q 3034 2003 2786 2293 
Q 2538 2584 2113 2584 
z
M 3366 4563 
L 3366 3988 
Q 3128 4100 2886 4159 
Q 2644 4219 2406 4219 
Q 1781 4219 1451 3797 
Q 1122 3375 1075 2522 
Q 1259 2794 1537 2939 
Q 1816 3084 2150 3084 
Q 2853 3084 3261 2657 
Q 3669 2231 3669 1497 
Q 3669 778 3244 343 
Q 2819 -91 2113 -91 
Q 1303 -91 875 529 
Q 447 1150 447 2328 
Q 447 3434 972 4092 
Q 1497 4750 2381 4750 
Q 2619 4750 2861 4703 
Q 3103 4656 3366 4563 
z
" transform="scale(0.015625)"/>
       </defs>
       <use xlink:href="#DejaVuSans-36"/>
       <use xlink:href="#DejaVuSans-30" x="63.623047"/>
       <use xlink:href="#DejaVuSans-30" x="127.246094"/>
       <use xlink:href="#DejaVuSans-30" x="190.869141"/>
      </g>
     </g>
    </g>
    <g id="ytick_5">
     <g id="line2d_12">
      <g>
       <use xlink:href="#m1346251397" x="54" y="128.154939" style="stroke: #000000; stroke-width: 1.875"/>
      </g>
     </g>
     <g id="text_13">
      <!-- 8000 -->
      <g transform="translate(10.96 132.714001) scale(0.12 -0.12)">
       <defs>
        <path id="DejaVuSans-38" d="M 2034 2216 
Q 1584 2216 1326 1975 
Q 1069 1734 1069 1313 
Q 1069 891 1326 650 
Q 1584 409 2034 409 
Q 2484 409 2743 651 
Q 3003 894 3003 1313 
Q 3003 1734 2745 1975 
Q 2488 2216 2034 2216 
z
M 1403 2484 
Q 997 2584 770 2862 
Q 544 3141 544 3541 
Q 544 4100 942 4425 
Q 1341 4750 2034 4750 
Q 2731 4750 3128 4425 
Q 3525 4100 3525 3541 
Q 3525 3141 3298 2862 
Q 3072 2584 2669 2484 
Q 3125 2378 3379 2068 
Q 3634 1759 3634 1313 
Q 3634 634 3220 271 
Q 2806 -91 2034 -91 
Q 1263 -91 848 271 
Q 434 634 434 1313 
Q 434 1759 690 2068 
Q 947 2378 1403 2484 
z
M 1172 3481 
Q 1172 3119 1398 2916 
Q 1625 2713 2034 2713 
Q 2441 2713 2670 2916 
Q 2900 3119 2900 3481 
Q 2900 3844 2670 4047 
Q 2441 4250 2034 4250 
Q 1625 4250 1398 4047 
Q 1172 3844 1172 3481 
z
" transform="scale(0.015625)"/>
       </defs>
       <use xlink:href="#DejaVuSans-38"/>
       <use xlink:href="#DejaVuSans-30" x="63.623047"/>
       <use xlink:href="#DejaVuSans-30" x="127.246094"/>
       <use xlink:href="#DejaVuSans-30" x="190.869141"/>
      </g>
     </g>
    </g>
    <g id="ytick_6">
     <g id="line2d_13">
      <g>
       <use xlink:href="#m1346251397" x="54" y="96.113674" style="stroke: #000000; stroke-width: 1.875"/>
      </g>
     </g>
     <g id="text_14">
      <!-- 10000 -->
      <g transform="translate(3.325 100.672736) scale(0.12 -0.12)">
       <defs>
        <path id="DejaVuSans-31" d="M 794 531 
L 1825 531 
L 1825 4091 
L 703 3866 
L 703 4441 
L 1819 4666 
L 2450 4666 
L 2450 531 
L 3481 531 
L 3481 0 
L 794 0 
L 794 531 
z
" transform="scale(0.015625)"/>
       </defs>
       <use xlink:href="#DejaVuSans-31"/>
       <use xlink:href="#DejaVuSans-30" x="63.623047"/>
       <use xlink:href="#DejaVuSans-30" x="127.246094"/>
       <use xlink:href="#DejaVuSans-30" x="190.869141"/>
       <use xlink:href="#DejaVuSans-30" x="254.492188"/>
      </g>
     </g>
    </g>
    <g id="ytick_7">
     <g id="line2d_14">
      <g>
       <use xlink:href="#m1346251397" x="54" y="64.072408" style="stroke: #000000; stroke-width: 1.875"/>
      </g>
     </g>
     <g id="text_15">
      <!-- 12000 -->
      <g transform="translate(3.325 68.631471) scale(0.12 -0.12)">
       <use xlink:href="#DejaVuSans-31"/>
       <use xlink:href="#DejaVuSans-32" x="63.623047"/>
       <use xlink:href="#DejaVuSans-30" x="127.246094"/>
       <use xlink:href="#DejaVuSans-30" x="190.869141"/>
       <use xlink:href="#DejaVuSans-30" x="254.492188"/>
      </g>
     </g>
    </g>
    <g id="text_16">
     <!-- Nombre de tirs -->
     <g transform="translate(-3.66975 199.155375) rotate(-90) scale(0.144 -0.144)">
      <defs>
       <path id="DejaVuSans-4e" d="M 628 4666 
L 1478 4666 
L 3547 763 
L 3547 4666 
L 4159 4666 
L 4159 0 
L 3309 0 
L 1241 3903 
L 1241 0 
L 628 0 
L 628 4666 
z
" transform="scale(0.015625)"/>
       <path id="DejaVuSans-6f" d="M 1959 3097 
Q 1497 3097 1228 2736 
Q 959 2375 959 1747 
Q 959 1119 1226 758 
Q 1494 397 1959 397 
Q 2419 397 2687 759 
Q 2956 1122 2956 1747 
Q 2956 2369 2687 2733 
Q 2419 3097 1959 3097 
z
M 1959 3584 
Q 2709 3584 3137 3096 
Q 3566 2609 3566 1747 
Q 3566 888 3137 398 
Q 2709 -91 1959 -91 
Q 1206 -91 779 398 
Q 353 888 353 1747 
Q 353 2609 779 3096 
Q 1206 3584 1959 3584 
z
" transform="scale(0.015625)"/>
       <path id="DejaVuSans-6d" d="M 3328 2828 
Q 3544 3216 3844 3400 
Q 4144 3584 4550 3584 
Q 5097 3584 5394 3201 
Q 5691 2819 5691 2113 
L 5691 0 
L 5113 0 
L 5113 2094 
Q 5113 2597 4934 2840 
Q 4756 3084 4391 3084 
Q 3944 3084 3684 2787 
Q 3425 2491 3425 1978 
L 3425 0 
L 2847 0 
L 2847 2094 
Q 2847 2600 2669 2842 
Q 2491 3084 2119 3084 
Q 1678 3084 1418 2786 
Q 1159 2488 1159 1978 
L 1159 0 
L 581 0 
L 581 3500 
L 1159 3500 
L 1159 2956 
Q 1356 3278 1631 3431 
Q 1906 3584 2284 3584 
Q 2666 3584 2933 3390 
Q 3200 3197 3328 2828 
z
" transform="scale(0.015625)"/>
       <path id="DejaVuSans-62" d="M 3116 1747 
Q 3116 2381 2855 2742 
Q 2594 3103 2138 3103 
Q 1681 3103 1420 2742 
Q 1159 2381 1159 1747 
Q 1159 1113 1420 752 
Q 1681 391 2138 391 
Q 2594 391 2855 752 
Q 3116 1113 3116 1747 
z
M 1159 2969 
Q 1341 3281 1617 3432 
Q 1894 3584 2278 3584 
Q 2916 3584 3314 3078 
Q 3713 2572 3713 1747 
Q 3713 922 3314 415 
Q 2916 -91 2278 -91 
Q 1894 -91 1617 61 
Q 1341 213 1159 525 
L 1159 0 
L 581 0 
L 581 4863 
L 1159 4863 
L 1159 2969 
z
" transform="scale(0.015625)"/>
      </defs>
      <use xlink:href="#DejaVuSans-4e"/>
      <use xlink:href="#DejaVuSans-6f" x="74.804688"/>
      <use xlink:href="#DejaVuSans-6d" x="135.986328"/>
      <use xlink:href="#DejaVuSans-62" x="233.398438"/>
      <use xlink:href="#DejaVuSans-72" x="296.875"/>
      <use xlink:href="#DejaVuSans-65" x="335.738281"/>
      <use xlink:href="#DejaVuSans-20" x="397.261719"/>
      <use xlink:href="#DejaVuSans-64" x="429.048828"/>
      <use xlink:href="#DejaVuSans-65" x="492.525391"/>
      <use xlink:href="#DejaVuSans-20" x="554.048828"/>
      <use xlink:href="#DejaVuSans-74" x="585.835938"/>
      <use xlink:href="#DejaVuSans-69" x="625.044922"/>
      <use xlink:href="#DejaVuSans-72" x="652.828125"/>
      <use xlink:href="#DejaVuSans-73" x="693.941406"/>
     </g>
    </g>
   </g>
   <g id="patch_103">
    <path d="M 54 256.32 
L 54 34.56 
" style="fill: none; stroke: #000000; stroke-width: 1.875; stroke-linejoin: miter; stroke-linecap: square"/>
   </g>
   <g id="patch_104">
    <path d="M 54 256.32 
L 388.8 256.32 
" style="fill: none; stroke: #000000; stroke-width: 1.875; stroke-linejoin: miter; stroke-linecap: square"/>
   </g>
   <g id="text_17">
    <!-- Nombre de tirs et buts selon angle du filet -->
    <g transform="translate(94.355625 28.56) scale(0.12 -0.12)">
     <defs>
      <path id="DejaVuSans-61" d="M 2194 1759 
Q 1497 1759 1228 1600 
Q 959 1441 959 1056 
Q 959 750 1161 570 
Q 1363 391 1709 391 
Q 2188 391 2477 730 
Q 2766 1069 2766 1631 
L 2766 1759 
L 2194 1759 
z
M 3341 1997 
L 3341 0 
L 2766 0 
L 2766 531 
Q 2569 213 2275 61 
Q 1981 -91 1556 -91 
Q 1019 -91 701 211 
Q 384 513 384 1019 
Q 384 1609 779 1909 
Q 1175 2209 1959 2209 
L 2766 2209 
L 2766 2266 
Q 2766 2663 2505 2880 
Q 2244 3097 1772 3097 
Q 1472 3097 1187 3025 
Q 903 2953 641 2809 
L 641 3341 
Q 956 3463 1253 3523 
Q 1550 3584 1831 3584 
Q 2591 3584 2966 3190 
Q 3341 2797 3341 1997 
z
" transform="scale(0.015625)"/>
      <path id="DejaVuSans-66" d="M 2375 4863 
L 2375 4384 
L 1825 4384 
Q 1516 4384 1395 4259 
Q 1275 4134 1275 3809 
L 1275 3500 
L 2222 3500 
L 2222 3053 
L 1275 3053 
L 1275 0 
L 697 0 
L 697 3053 
L 147 3053 
L 147 3500 
L 697 3500 
L 697 3744 
Q 697 4328 969 4595 
Q 1241 4863 1831 4863 
L 2375 4863 
z
" transform="scale(0.015625)"/>
     </defs>
     <use xlink:href="#DejaVuSans-4e"/>
     <use xlink:href="#DejaVuSans-6f" x="74.804688"/>
     <use xlink:href="#DejaVuSans-6d" x="135.986328"/>
     <use xlink:href="#DejaVuSans-62" x="233.398438"/>
     <use xlink:href="#DejaVuSans-72" x="296.875"/>
     <use xlink:href="#DejaVuSans-65" x="335.738281"/>
     <use xlink:href="#DejaVuSans-20" x="397.261719"/>
     <use xlink:href="#DejaVuSans-64" x="429.048828"/>
     <use xlink:href="#DejaVuSans-65" x="492.525391"/>
     <use xlink:href="#DejaVuSans-20" x="554.048828"/>
     <use xlink:href="#DejaVuSans-74" x="585.835938"/>
     <use xlink:href="#DejaVuSans-69" x="625.044922"/>
     <use xlink:href="#DejaVuSans-72" x="652.828125"/>
     <use xlink:href="#DejaVuSans-73" x="693.941406"/>
     <use xlink:href="#DejaVuSans-20" x="746.041016"/>
     <use xlink:href="#DejaVuSans-65" x="777.828125"/>
     <use xlink:href="#DejaVuSans-74" x="839.351562"/>
     <use xlink:href="#DejaVuSans-20" x="878.560547"/>
     <use xlink:href="#DejaVuSans-62" x="910.347656"/>
     <use xlink:href="#DejaVuSans-75" x="973.824219"/>
     <use xlink:href="#DejaVuSans-74" x="1037.203125"/>
     <use xlink:href="#DejaVuSans-73" x="1076.412109"/>
     <use xlink:href="#DejaVuSans-20" x="1128.511719"/>
     <use xlink:href="#DejaVuSans-73" x="1160.298828"/>
     <use xlink:href="#DejaVuSans-65" x="1212.398438"/>
     <use xlink:href="#DejaVuSans-6c" x="1273.921875"/>
     <use xlink:href="#DejaVuSans-6f" x="1301.705078"/>
     <use xlink:href="#DejaVuSans-6e" x="1362.886719"/>
     <use xlink:href="#DejaVuSans-20" x="1426.265625"/>
     <use xlink:href="#DejaVuSans-61" x="1458.052734"/>
     <use xlink:href="#DejaVuSans-6e" x="1519.332031"/>
     <use xlink:href="#DejaVuSans-67" x="1582.710938"/>
     <use xlink:href="#DejaVuSans-6c" x="1646.1875"/>
     <use xlink:href="#DejaVuSans-65" x="1673.970703"/>
     <use xlink:href="#DejaVuSans-20" x="1735.494141"/>
     <use xlink:href="#DejaVuSans-64" x="1767.28125"/>
     <use xlink:href="#DejaVuSans-75" x="1830.757812"/>
     <use xlink:href="#DejaVuSans-20" x="1894.136719"/>
     <use xlink:href="#DejaVuSans-66" x="1925.923828"/>
     <use xlink:href="#DejaVuSans-69" x="1961.128906"/>
     <use xlink:href="#DejaVuSans-6c" x="1988.912109"/>
     <use xlink:href="#DejaVuSans-65" x="2016.695312"/>
     <use xlink:href="#DejaVuSans-74" x="2078.21875"/>
    </g>
   </g>
   <g id="legend_1">
    <g id="patch_105">
     <path d="M 294.33375 79.3875 
L 380.4 79.3875 
Q 382.8 79.3875 382.8 76.9875 
L 382.8 42.96 
Q 382.8 40.56 380.4 40.56 
L 294.33375 40.56 
Q 291.93375 40.56 291.93375 42.96 
L 291.93375 76.9875 
Q 291.93375 79.3875 294.33375 79.3875 
z
" style="fill: #ffffff; opacity: 0.8; stroke: #cccccc; stroke-width: 1.5; stroke-linejoin: miter"/>
    </g>
    <g id="patch_106">
     <path d="M 296.73375 54.478125 
L 320.73375 54.478125 
L 320.73375 46.078125 
L 296.73375 46.078125 
z
" style="fill: #1f77b4"/>
    </g>
    <g id="text_18">
     <!-- Non but -->
     <g transform="translate(330.33375 54.478125) scale(0.12 -0.12)">
      <use xlink:href="#DejaVuSans-4e"/>
      <use xlink:href="#DejaVuSans-6f" x="74.804688"/>
      <use xlink:href="#DejaVuSans-6e" x="135.986328"/>
      <use xlink:href="#DejaVuSans-20" x="199.365234"/>
      <use xlink:href="#DejaVuSans-62" x="231.152344"/>
      <use xlink:href="#DejaVuSans-75" x="294.628906"/>
      <use xlink:href="#DejaVuSans-74" x="358.007812"/>
     </g>
    </g>
    <g id="patch_107">
     <path d="M 296.73375 72.091875 
L 320.73375 72.091875 
L 320.73375 63.691875 
L 296.73375 63.691875 
z
" style="fill: #ff7f0e"/>
    </g>
    <g id="text_19">
     <!-- But -->
     <g transform="translate(330.33375 72.091875) scale(0.12 -0.12)">
      <defs>
       <path id="DejaVuSans-42" d="M 1259 2228 
L 1259 519 
L 2272 519 
Q 2781 519 3026 730 
Q 3272 941 3272 1375 
Q 3272 1813 3026 2020 
Q 2781 2228 2272 2228 
L 1259 2228 
z
M 1259 4147 
L 1259 2741 
L 2194 2741 
Q 2656 2741 2882 2914 
Q 3109 3088 3109 3444 
Q 3109 3797 2882 3972 
Q 2656 4147 2194 4147 
L 1259 4147 
z
M 628 4666 
L 2241 4666 
Q 2963 4666 3353 4366 
Q 3744 4066 3744 3513 
Q 3744 3084 3544 2831 
Q 3344 2578 2956 2516 
Q 3422 2416 3680 2098 
Q 3938 1781 3938 1306 
Q 3938 681 3513 340 
Q 3088 0 2303 0 
L 628 0 
L 628 4666 
z
" transform="scale(0.015625)"/>
      </defs>
      <use xlink:href="#DejaVuSans-42"/>
      <use xlink:href="#DejaVuSans-75" x="68.603516"/>
      <use xlink:href="#DejaVuSans-74" x="131.982422"/>
     </g>
    </g>
   </g>
  </g>
 </g>
 <defs>
  <clipPath id="p45430e8329">
   <rect x="54" y="34.56" width="334.8" height="221.76"/>
  </clipPath>
 </defs>
</svg>
