<?xml version="1.0" encoding="utf-8" standalone="no"?>
<!DOCTYPE svg PUBLIC "-//W3C//DTD SVG 1.1//EN"
  "http://www.w3.org/Graphics/SVG/1.1/DTD/svg11.dtd">
<svg xmlns:xlink="http://www.w3.org/1999/xlink" width="432pt" height="288pt" viewBox="0 0 432 288" xmlns="http://www.w3.org/2000/svg" version="1.1">
 <metadata>
  <rdf:RDF xmlns:dc="http://purl.org/dc/elements/1.1/" xmlns:cc="http://creativecommons.org/ns#" xmlns:rdf="http://www.w3.org/1999/02/22-rdf-syntax-ns#">
   <cc:Work>
    <dc:type rdf:resource="http://purl.org/dc/dcmitype/StillImage"/>
    <dc:date>2023-11-07T16:30:25.582557</dc:date>
    <dc:format>image/svg+xml</dc:format>
    <dc:creator>
     <cc:Agent>
      <dc:title>Matplotlib v3.7.2, https://matplotlib.org/</dc:title>
     </cc:Agent>
    </dc:creator>
   </cc:Work>
  </rdf:RDF>
 </metadata>
 <defs>
  <style type="text/css">*{stroke-linejoin: round; stroke-linecap: butt}</style>
 </defs>
 <g id="figure_1">
  <g id="patch_1">
   <path d="M 0 288 
L 432 288 
L 432 0 
L 0 0 
z
" style="fill: #ffffff"/>
  </g>
  <g id="axes_1">
   <g id="patch_2">
    <path d="M 54 256.32 
L 388.8 256.32 
L 388.8 34.56 
L 54 34.56 
z
" style="fill: #ffffff"/>
   </g>
   <g id="patch_3">
    <path d="M 69.218182 256.32 
L 75.305455 256.32 
L 75.305455 256.291681 
L 69.218182 256.291681 
z
" clip-path="url(#p04baaaf674)" style="fill: #1f77b4"/>
   </g>
   <g id="patch_4">
    <path d="M 75.305455 256.32 
L 81.392727 256.32 
L 81.392727 253.884602 
L 75.305455 253.884602 
z
" clip-path="url(#p04baaaf674)" style="fill: #1f77b4"/>
   </g>
   <g id="patch_5">
    <path d="M 81.392727 256.32 
L 87.48 256.32 
L 87.48 223.937699 
L 81.392727 223.937699 
z
" clip-path="url(#p04baaaf674)" style="fill: #1f77b4"/>
   </g>
   <g id="patch_6">
    <path d="M 87.48 256.32 
L 93.567273 256.32 
L 93.567273 156.100531 
L 87.48 156.100531 
z
" clip-path="url(#p04baaaf674)" style="fill: #1f77b4"/>
   </g>
   <g id="patch_7">
    <path d="M 93.567273 256.32 
L 99.654545 256.32 
L 99.654545 88.645664 
L 93.567273 88.645664 
z
" clip-path="url(#p04baaaf674)" style="fill: #1f77b4"/>
   </g>
   <g id="patch_8">
    <path d="M 99.654545 256.32 
L 105.741818 256.32 
L 105.741818 45.12 
L 99.654545 45.12 
z
" clip-path="url(#p04baaaf674)" style="fill: #1f77b4"/>
   </g>
   <g id="patch_9">
    <path d="M 105.741818 256.32 
L 111.829091 256.32 
L 111.829091 98.486372 
L 105.741818 98.486372 
z
" clip-path="url(#p04baaaf674)" style="fill: #1f77b4"/>
   </g>
   <g id="patch_10">
    <path d="M 111.829091 256.32 
L 117.916364 256.32 
L 117.916364 115.859823 
L 111.829091 115.859823 
z
" clip-path="url(#p04baaaf674)" style="fill: #1f77b4"/>
   </g>
   <g id="patch_11">
    <path d="M 117.916364 256.32 
L 124.003636 256.32 
L 124.003636 135.980177 
L 117.916364 135.980177 
z
" clip-path="url(#p04baaaf674)" style="fill: #1f77b4"/>
   </g>
   <g id="patch_12">
    <path d="M 124.003636 256.32 
L 130.090909 256.32 
L 130.090909 140.482832 
L 124.003636 140.482832 
z
" clip-path="url(#p04baaaf674)" style="fill: #1f77b4"/>
   </g>
   <g id="patch_13">
    <path d="M 130.090909 256.32 
L 136.178182 256.32 
L 136.178182 135.781947 
L 130.090909 135.781947 
z
" clip-path="url(#p04baaaf674)" style="fill: #1f77b4"/>
   </g>
   <g id="patch_14">
    <path d="M 136.178182 256.32 
L 142.265455 256.32 
L 142.265455 141.813805 
L 136.178182 141.813805 
z
" clip-path="url(#p04baaaf674)" style="fill: #1f77b4"/>
   </g>
   <g id="patch_15">
    <path d="M 142.265455 256.32 
L 148.352727 256.32 
L 148.352727 146.613805 
L 142.265455 146.613805 
z
" clip-path="url(#p04baaaf674)" style="fill: #1f77b4"/>
   </g>
   <g id="patch_16">
    <path d="M 148.352727 256.32 
L 154.44 256.32 
L 154.44 133.700531 
L 148.352727 133.700531 
z
" clip-path="url(#p04baaaf674)" style="fill: #1f77b4"/>
   </g>
   <g id="patch_17">
    <path d="M 154.44 256.32 
L 160.527273 256.32 
L 160.527273 131.831504 
L 154.44 131.831504 
z
" clip-path="url(#p04baaaf674)" style="fill: #1f77b4"/>
   </g>
   <g id="patch_18">
    <path d="M 160.527273 256.32 
L 166.614545 256.32 
L 166.614545 126.960708 
L 160.527273 126.960708 
z
" clip-path="url(#p04baaaf674)" style="fill: #1f77b4"/>
   </g>
   <g id="patch_19">
    <path d="M 166.614545 256.32 
L 172.701818 256.32 
L 172.701818 125.233274 
L 166.614545 125.233274 
z
" clip-path="url(#p04baaaf674)" style="fill: #1f77b4"/>
   </g>
   <g id="patch_20">
    <path d="M 172.701818 256.32 
L 178.789091 256.32 
L 178.789091 135.852743 
L 172.701818 135.852743 
z
" clip-path="url(#p04baaaf674)" style="fill: #1f77b4"/>
   </g>
   <g id="patch_21">
    <path d="M 178.789091 256.32 
L 184.876364 256.32 
L 184.876364 119.852743 
L 178.789091 119.852743 
z
" clip-path="url(#p04baaaf674)" style="fill: #1f77b4"/>
   </g>
   <g id="patch_22">
    <path d="M 184.876364 256.32 
L 190.963636 256.32 
L 190.963636 127.088142 
L 184.876364 127.088142 
z
" clip-path="url(#p04baaaf674)" style="fill: #1f77b4"/>
   </g>
   <g id="patch_23">
    <path d="M 190.963636 256.32 
L 197.050909 256.32 
L 197.050909 120.574867 
L 190.963636 120.574867 
z
" clip-path="url(#p04baaaf674)" style="fill: #1f77b4"/>
   </g>
   <g id="patch_24">
    <path d="M 197.050909 256.32 
L 203.138182 256.32 
L 203.138182 130.146549 
L 197.050909 130.146549 
z
" clip-path="url(#p04baaaf674)" style="fill: #1f77b4"/>
   </g>
   <g id="patch_25">
    <path d="M 203.138182 256.32 
L 209.225455 256.32 
L 209.225455 137.481062 
L 203.138182 137.481062 
z
" clip-path="url(#p04baaaf674)" style="fill: #1f77b4"/>
   </g>
   <g id="patch_26">
    <path d="M 209.225455 256.32 
L 215.312727 256.32 
L 215.312727 140.822655 
L 209.225455 140.822655 
z
" clip-path="url(#p04baaaf674)" style="fill: #1f77b4"/>
   </g>
   <g id="patch_27">
    <path d="M 215.312727 256.32 
L 221.4 256.32 
L 221.4 147.859823 
L 215.312727 147.859823 
z
" clip-path="url(#p04baaaf674)" style="fill: #1f77b4"/>
   </g>
   <g id="patch_28">
    <path d="M 221.4 256.32 
L 227.487273 256.32 
L 227.487273 145.31115 
L 221.4 145.31115 
z
" clip-path="url(#p04baaaf674)" style="fill: #1f77b4"/>
   </g>
   <g id="patch_29">
    <path d="M 227.487273 256.32 
L 233.574545 256.32 
L 233.574545 135.088142 
L 227.487273 135.088142 
z
" clip-path="url(#p04baaaf674)" style="fill: #1f77b4"/>
   </g>
   <g id="patch_30">
    <path d="M 233.574545 256.32 
L 239.661818 256.32 
L 239.661818 130.826195 
L 233.574545 130.826195 
z
" clip-path="url(#p04baaaf674)" style="fill: #1f77b4"/>
   </g>
   <g id="patch_31">
    <path d="M 239.661818 256.32 
L 245.749091 256.32 
L 245.749091 126.436814 
L 239.661818 126.436814 
z
" clip-path="url(#p04baaaf674)" style="fill: #1f77b4"/>
   </g>
   <g id="patch_32">
    <path d="M 245.749091 256.32 
L 251.836364 256.32 
L 251.836364 137.254513 
L 245.749091 137.254513 
z
" clip-path="url(#p04baaaf674)" style="fill: #1f77b4"/>
   </g>
   <g id="patch_33">
    <path d="M 251.836364 256.32 
L 257.923636 256.32 
L 257.923636 158.026195 
L 251.836364 158.026195 
z
" clip-path="url(#p04baaaf674)" style="fill: #1f77b4"/>
   </g>
   <g id="patch_34">
    <path d="M 257.923636 256.32 
L 264.010909 256.32 
L 264.010909 180.270442 
L 257.923636 180.270442 
z
" clip-path="url(#p04baaaf674)" style="fill: #1f77b4"/>
   </g>
   <g id="patch_35">
    <path d="M 264.010909 256.32 
L 270.098182 256.32 
L 270.098182 205.304071 
L 264.010909 205.304071 
z
" clip-path="url(#p04baaaf674)" style="fill: #1f77b4"/>
   </g>
   <g id="patch_36">
    <path d="M 270.098182 256.32 
L 276.185455 256.32 
L 276.185455 222.833274 
L 270.098182 222.833274 
z
" clip-path="url(#p04baaaf674)" style="fill: #1f77b4"/>
   </g>
   <g id="patch_37">
    <path d="M 276.185455 256.32 
L 282.272727 256.32 
L 282.272727 232.305841 
L 276.185455 232.305841 
z
" clip-path="url(#p04baaaf674)" style="fill: #1f77b4"/>
   </g>
   <g id="patch_38">
    <path d="M 282.272727 256.32 
L 288.36 256.32 
L 288.36 240.957168 
L 282.272727 240.957168 
z
" clip-path="url(#p04baaaf674)" style="fill: #1f77b4"/>
   </g>
   <g id="patch_39">
    <path d="M 288.36 256.32 
L 294.447273 256.32 
L 294.447273 245.445664 
L 288.36 245.445664 
z
" clip-path="url(#p04baaaf674)" style="fill: #1f77b4"/>
   </g>
   <g id="patch_40">
    <path d="M 294.447273 256.32 
L 300.534545 256.32 
L 300.534545 244.964248 
L 294.447273 244.964248 
z
" clip-path="url(#p04baaaf674)" style="fill: #1f77b4"/>
   </g>
   <g id="patch_41">
    <path d="M 300.534545 256.32 
L 306.621818 256.32 
L 306.621818 246.11115 
L 300.534545 246.11115 
z
" clip-path="url(#p04baaaf674)" style="fill: #1f77b4"/>
   </g>
   <g id="patch_42">
    <path d="M 306.621818 256.32 
L 312.709091 256.32 
L 312.709091 244.666903 
L 306.621818 244.666903 
z
" clip-path="url(#p04baaaf674)" style="fill: #1f77b4"/>
   </g>
   <g id="patch_43">
    <path d="M 312.709091 256.32 
L 318.796364 256.32 
L 318.796364 245.51646 
L 312.709091 245.51646 
z
" clip-path="url(#p04baaaf674)" style="fill: #1f77b4"/>
   </g>
   <g id="patch_44">
    <path d="M 318.796364 256.32 
L 324.883636 256.32 
L 324.883636 245.417345 
L 318.796364 245.417345 
z
" clip-path="url(#p04baaaf674)" style="fill: #1f77b4"/>
   </g>
   <g id="patch_45">
    <path d="M 324.883636 256.32 
L 330.970909 256.32 
L 330.970909 245.884602 
L 324.883636 245.884602 
z
" clip-path="url(#p04baaaf674)" style="fill: #1f77b4"/>
   </g>
   <g id="patch_46">
    <path d="M 330.970909 256.32 
L 337.058182 256.32 
L 337.058182 245.332389 
L 330.970909 245.332389 
z
" clip-path="url(#p04baaaf674)" style="fill: #1f77b4"/>
   </g>
   <g id="patch_47">
    <path d="M 337.058182 256.32 
L 343.145455 256.32 
L 343.145455 245.431504 
L 337.058182 245.431504 
z
" clip-path="url(#p04baaaf674)" style="fill: #1f77b4"/>
   </g>
   <g id="patch_48">
    <path d="M 343.145455 256.32 
L 349.232727 256.32 
L 349.232727 247.343009 
L 343.145455 247.343009 
z
" clip-path="url(#p04baaaf674)" style="fill: #1f77b4"/>
   </g>
   <g id="patch_49">
    <path d="M 349.232727 256.32 
L 355.32 256.32 
L 355.32 250.11823 
L 349.232727 250.11823 
z
" clip-path="url(#p04baaaf674)" style="fill: #1f77b4"/>
   </g>
   <g id="patch_50">
    <path d="M 355.32 256.32 
L 361.407273 256.32 
L 361.407273 250.92531 
L 355.32 250.92531 
z
" clip-path="url(#p04baaaf674)" style="fill: #1f77b4"/>
   </g>
   <g id="patch_51">
    <path d="M 361.407273 256.32 
L 367.494545 256.32 
L 367.494545 253.275752 
L 361.407273 253.275752 
z
" clip-path="url(#p04baaaf674)" style="fill: #1f77b4"/>
   </g>
   <g id="patch_52">
    <path d="M 367.494545 256.32 
L 373.581818 256.32 
L 373.581818 255.597876 
L 367.494545 255.597876 
z
" clip-path="url(#p04baaaf674)" style="fill: #1f77b4"/>
   </g>
   <g id="patch_53">
    <path d="M 69.218182 256.32 
L 75.305455 256.32 
L 75.305455 256.150088 
L 69.218182 256.150088 
z
" clip-path="url(#p04baaaf674)" style="fill: #ff7f0e"/>
   </g>
   <g id="patch_54">
    <path d="M 75.305455 256.32 
L 81.392727 256.32 
L 81.392727 254.252743 
L 75.305455 254.252743 
z
" clip-path="url(#p04baaaf674)" style="fill: #ff7f0e"/>
   </g>
   <g id="patch_55">
    <path d="M 81.392727 256.32 
L 87.48 256.32 
L 87.48 246.32354 
L 81.392727 246.32354 
z
" clip-path="url(#p04baaaf674)" style="fill: #ff7f0e"/>
   </g>
   <g id="patch_56">
    <path d="M 87.48 256.32 
L 93.567273 256.32 
L 93.567273 231.852743 
L 87.48 231.852743 
z
" clip-path="url(#p04baaaf674)" style="fill: #ff7f0e"/>
   </g>
   <g id="patch_57">
    <path d="M 93.567273 256.32 
L 99.654545 256.32 
L 99.654545 216.504071 
L 93.567273 216.504071 
z
" clip-path="url(#p04baaaf674)" style="fill: #ff7f0e"/>
   </g>
   <g id="patch_58">
    <path d="M 99.654545 256.32 
L 105.741818 256.32 
L 105.741818 209.990796 
L 99.654545 209.990796 
z
" clip-path="url(#p04baaaf674)" style="fill: #ff7f0e"/>
   </g>
   <g id="patch_59">
    <path d="M 105.741818 256.32 
L 111.829091 256.32 
L 111.829091 225.31115 
L 105.741818 225.31115 
z
" clip-path="url(#p04baaaf674)" style="fill: #ff7f0e"/>
   </g>
   <g id="patch_60">
    <path d="M 111.829091 256.32 
L 117.916364 256.32 
L 117.916364 230.266903 
L 111.829091 230.266903 
z
" clip-path="url(#p04baaaf674)" style="fill: #ff7f0e"/>
   </g>
   <g id="patch_61">
    <path d="M 117.916364 256.32 
L 124.003636 256.32 
L 124.003636 234.344779 
L 117.916364 234.344779 
z
" clip-path="url(#p04baaaf674)" style="fill: #ff7f0e"/>
   </g>
   <g id="patch_62">
    <path d="M 124.003636 256.32 
L 130.090909 256.32 
L 130.090909 236.369558 
L 124.003636 236.369558 
z
" clip-path="url(#p04baaaf674)" style="fill: #ff7f0e"/>
   </g>
   <g id="patch_63">
    <path d="M 130.090909 256.32 
L 136.178182 256.32 
L 136.178182 236.950088 
L 130.090909 236.950088 
z
" clip-path="url(#p04baaaf674)" style="fill: #ff7f0e"/>
   </g>
   <g id="patch_64">
    <path d="M 136.178182 256.32 
L 142.265455 256.32 
L 142.265455 240.220885 
L 136.178182 240.220885 
z
" clip-path="url(#p04baaaf674)" style="fill: #ff7f0e"/>
   </g>
   <g id="patch_65">
    <path d="M 142.265455 256.32 
L 148.352727 256.32 
L 148.352727 242.387257 
L 142.265455 242.387257 
z
" clip-path="url(#p04baaaf674)" style="fill: #ff7f0e"/>
   </g>
   <g id="patch_66">
    <path d="M 148.352727 256.32 
L 154.44 256.32 
L 154.44 241.608496 
L 148.352727 241.608496 
z
" clip-path="url(#p04baaaf674)" style="fill: #ff7f0e"/>
   </g>
   <g id="patch_67">
    <path d="M 154.44 256.32 
L 160.527273 256.32 
L 160.527273 242.755398 
L 154.44 242.755398 
z
" clip-path="url(#p04baaaf674)" style="fill: #ff7f0e"/>
   </g>
   <g id="patch_68">
    <path d="M 160.527273 256.32 
L 166.614545 256.32 
L 166.614545 242.967788 
L 160.527273 242.967788 
z
" clip-path="url(#p04baaaf674)" style="fill: #ff7f0e"/>
   </g>
   <g id="patch_69">
    <path d="M 166.614545 256.32 
L 172.701818 256.32 
L 172.701818 244.666903 
L 166.614545 244.666903 
z
" clip-path="url(#p04baaaf674)" style="fill: #ff7f0e"/>
   </g>
   <g id="patch_70">
    <path d="M 172.701818 256.32 
L 178.789091 256.32 
L 178.789091 246.960708 
L 172.701818 246.960708 
z
" clip-path="url(#p04baaaf674)" style="fill: #ff7f0e"/>
   </g>
   <g id="patch_71">
    <path d="M 178.789091 256.32 
L 184.876364 256.32 
L 184.876364 247.158938 
L 178.789091 247.158938 
z
" clip-path="url(#p04baaaf674)" style="fill: #ff7f0e"/>
   </g>
   <g id="patch_72">
    <path d="M 184.876364 256.32 
L 190.963636 256.32 
L 190.963636 248.900531 
L 184.876364 248.900531 
z
" clip-path="url(#p04baaaf674)" style="fill: #ff7f0e"/>
   </g>
   <g id="patch_73">
    <path d="M 190.963636 256.32 
L 197.050909 256.32 
L 197.050909 248.943009 
L 190.963636 248.943009 
z
" clip-path="url(#p04baaaf674)" style="fill: #ff7f0e"/>
   </g>
   <g id="patch_74">
    <path d="M 197.050909 256.32 
L 203.138182 256.32 
L 203.138182 250.472212 
L 197.050909 250.472212 
z
" clip-path="url(#p04baaaf674)" style="fill: #ff7f0e"/>
   </g>
   <g id="patch_75">
    <path d="M 203.138182 256.32 
L 209.225455 256.32 
L 209.225455 250.71292 
L 203.138182 250.71292 
z
" clip-path="url(#p04baaaf674)" style="fill: #ff7f0e"/>
   </g>
   <g id="patch_76">
    <path d="M 209.225455 256.32 
L 215.312727 256.32 
L 215.312727 251.902301 
L 209.225455 251.902301 
z
" clip-path="url(#p04baaaf674)" style="fill: #ff7f0e"/>
   </g>
   <g id="patch_77">
    <path d="M 215.312727 256.32 
L 221.4 256.32 
L 221.4 252.242124 
L 215.312727 252.242124 
z
" clip-path="url(#p04baaaf674)" style="fill: #ff7f0e"/>
   </g>
   <g id="patch_78">
    <path d="M 221.4 256.32 
L 227.487273 256.32 
L 227.487273 252.298761 
L 221.4 252.298761 
z
" clip-path="url(#p04baaaf674)" style="fill: #ff7f0e"/>
   </g>
   <g id="patch_79">
    <path d="M 227.487273 256.32 
L 233.574545 256.32 
L 233.574545 252.001416 
L 227.487273 252.001416 
z
" clip-path="url(#p04baaaf674)" style="fill: #ff7f0e"/>
   </g>
   <g id="patch_80">
    <path d="M 233.574545 256.32 
L 239.661818 256.32 
L 239.661818 252.086372 
L 233.574545 252.086372 
z
" clip-path="url(#p04baaaf674)" style="fill: #ff7f0e"/>
   </g>
   <g id="patch_81">
    <path d="M 239.661818 256.32 
L 245.749091 256.32 
L 245.749091 252.284602 
L 239.661818 252.284602 
z
" clip-path="url(#p04baaaf674)" style="fill: #ff7f0e"/>
   </g>
   <g id="patch_82">
    <path d="M 245.749091 256.32 
L 251.836364 256.32 
L 251.836364 252.666903 
L 245.749091 252.666903 
z
" clip-path="url(#p04baaaf674)" style="fill: #ff7f0e"/>
   </g>
   <g id="patch_83">
    <path d="M 251.836364 256.32 
L 257.923636 256.32 
L 257.923636 253.502301 
L 251.836364 253.502301 
z
" clip-path="url(#p04baaaf674)" style="fill: #ff7f0e"/>
   </g>
   <g id="patch_84">
    <path d="M 257.923636 256.32 
L 264.010909 256.32 
L 264.010909 254.337699 
L 257.923636 254.337699 
z
" clip-path="url(#p04baaaf674)" style="fill: #ff7f0e"/>
   </g>
   <g id="patch_85">
    <path d="M 264.010909 256.32 
L 270.098182 256.32 
L 270.098182 254.932389 
L 264.010909 254.932389 
z
" clip-path="url(#p04baaaf674)" style="fill: #ff7f0e"/>
   </g>
   <g id="patch_86">
    <path d="M 270.098182 256.32 
L 276.185455 256.32 
L 276.185455 255.399646 
L 270.098182 255.399646 
z
" clip-path="url(#p04baaaf674)" style="fill: #ff7f0e"/>
   </g>
   <g id="patch_87">
    <path d="M 276.185455 256.32 
L 282.272727 256.32 
L 282.272727 255.654513 
L 276.185455 255.654513 
z
" clip-path="url(#p04baaaf674)" style="fill: #ff7f0e"/>
   </g>
   <g id="patch_88">
    <path d="M 282.272727 256.32 
L 288.36 256.32 
L 288.36 255.810265 
L 282.272727 255.810265 
z
" clip-path="url(#p04baaaf674)" style="fill: #ff7f0e"/>
   </g>
   <g id="patch_89">
    <path d="M 288.36 256.32 
L 294.447273 256.32 
L 294.447273 255.909381 
L 288.36 255.909381 
z
" clip-path="url(#p04baaaf674)" style="fill: #ff7f0e"/>
   </g>
   <g id="patch_90">
    <path d="M 294.447273 256.32 
L 300.534545 256.32 
L 300.534545 255.994336 
L 294.447273 255.994336 
z
" clip-path="url(#p04baaaf674)" style="fill: #ff7f0e"/>
   </g>
   <g id="patch_91">
    <path d="M 300.534545 256.32 
L 306.621818 256.32 
L 306.621818 255.966018 
L 300.534545 255.966018 
z
" clip-path="url(#p04baaaf674)" style="fill: #ff7f0e"/>
   </g>
   <g id="patch_92">
    <path d="M 306.621818 256.32 
L 312.709091 256.32 
L 312.709091 255.937699 
L 306.621818 255.937699 
z
" clip-path="url(#p04baaaf674)" style="fill: #ff7f0e"/>
   </g>
   <g id="patch_93">
    <path d="M 312.709091 256.32 
L 318.796364 256.32 
L 318.796364 255.937699 
L 312.709091 255.937699 
z
" clip-path="url(#p04baaaf674)" style="fill: #ff7f0e"/>
   </g>
   <g id="patch_94">
    <path d="M 318.796364 256.32 
L 324.883636 256.32 
L 324.883636 255.92354 
L 318.796364 255.92354 
z
" clip-path="url(#p04baaaf674)" style="fill: #ff7f0e"/>
   </g>
   <g id="patch_95">
    <path d="M 324.883636 256.32 
L 330.970909 256.32 
L 330.970909 255.951858 
L 324.883636 255.951858 
z
" clip-path="url(#p04baaaf674)" style="fill: #ff7f0e"/>
   </g>
   <g id="patch_96">
    <path d="M 330.970909 256.32 
L 337.058182 256.32 
L 337.058182 255.895221 
L 330.970909 255.895221 
z
" clip-path="url(#p04baaaf674)" style="fill: #ff7f0e"/>
   </g>
   <g id="patch_97">
    <path d="M 337.058182 256.32 
L 343.145455 256.32 
L 343.145455 255.951858 
L 337.058182 255.951858 
z
" clip-path="url(#p04baaaf674)" style="fill: #ff7f0e"/>
   </g>
   <g id="patch_98">
    <path d="M 343.145455 256.32 
L 349.232727 256.32 
L 349.232727 255.951858 
L 343.145455 255.951858 
z
" clip-path="url(#p04baaaf674)" style="fill: #ff7f0e"/>
   </g>
   <g id="patch_99">
    <path d="M 349.232727 256.32 
L 355.32 256.32 
L 355.32 255.951858 
L 349.232727 255.951858 
z
" clip-path="url(#p04baaaf674)" style="fill: #ff7f0e"/>
   </g>
   <g id="patch_100">
    <path d="M 355.32 256.32 
L 361.407273 256.32 
L 361.407273 256.12177 
L 355.32 256.12177 
z
" clip-path="url(#p04baaaf674)" style="fill: #ff7f0e"/>
   </g>
   <g id="patch_101">
    <path d="M 361.407273 256.32 
L 367.494545 256.32 
L 367.494545 256.150088 
L 361.407273 256.150088 
z
" clip-path="url(#p04baaaf674)" style="fill: #ff7f0e"/>
   </g>
   <g id="patch_102">
    <path d="M 367.494545 256.32 
L 373.581818 256.32 
L 373.581818 256.249204 
L 367.494545 256.249204 
z
" clip-path="url(#p04baaaf674)" style="fill: #ff7f0e"/>
   </g>
   <g id="matplotlib.axis_1">
    <g id="xtick_1">
     <g id="line2d_1">
      <defs>
       <path id="m88a44ff966" d="M 0 0 
L 0 9 
" style="stroke: #000000; stroke-width: 1.875"/>
      </defs>
      <g>
       <use xlink:href="#m88a44ff966" x="69.218182" y="256.32" style="stroke: #000000; stroke-width: 1.875"/>
      </g>
     </g>
     <g id="text_1">
      <!-- 0 -->
      <g transform="translate(65.400682 277.938125) scale(0.12 -0.12)">
       <defs>
        <path id="DejaVuSans-30" d="M 2034 4250 
Q 1547 4250 1301 3770 
Q 1056 3291 1056 2328 
Q 1056 1369 1301 889 
Q 1547 409 2034 409 
Q 2525 409 2770 889 
Q 3016 1369 3016 2328 
Q 3016 3291 2770 3770 
Q 2525 4250 2034 4250 
z
M 2034 4750 
Q 2819 4750 3233 4129 
Q 3647 3509 3647 2328 
Q 3647 1150 3233 529 
Q 2819 -91 2034 -91 
Q 1250 -91 836 529 
Q 422 1150 422 2328 
Q 422 3509 836 4129 
Q 1250 4750 2034 4750 
z
" transform="scale(0.015625)"/>
       </defs>
       <use xlink:href="#DejaVuSans-30"/>
      </g>
     </g>
    </g>
    <g id="xtick_2">
     <g id="line2d_2">
      <g>
       <use xlink:href="#m88a44ff966" x="131.339678" y="256.32" style="stroke: #000000; stroke-width: 1.875"/>
      </g>
     </g>
     <g id="text_2">
      <!-- 20 -->
      <g transform="translate(123.704678 277.938125) scale(0.12 -0.12)">
       <defs>
        <path id="DejaVuSans-32" d="M 1228 531 
L 3431 531 
L 3431 0 
L 469 0 
L 469 531 
Q 828 903 1448 1529 
Q 2069 2156 2228 2338 
Q 2531 2678 2651 2914 
Q 2772 3150 2772 3378 
Q 2772 3750 2511 3984 
Q 2250 4219 1831 4219 
Q 1534 4219 1204 4116 
Q 875 4013 500 3803 
L 500 4441 
Q 881 4594 1212 4672 
Q 1544 4750 1819 4750 
Q 2544 4750 2975 4387 
Q 3406 4025 3406 3419 
Q 3406 3131 3298 2873 
Q 3191 2616 2906 2266 
Q 2828 2175 2409 1742 
Q 1991 1309 1228 531 
z
" transform="scale(0.015625)"/>
       </defs>
       <use xlink:href="#DejaVuSans-32"/>
       <use xlink:href="#DejaVuSans-30" x="63.623047"/>
      </g>
     </g>
    </g>
    <g id="xtick_3">
     <g id="line2d_3">
      <g>
       <use xlink:href="#m88a44ff966" x="193.461175" y="256.32" style="stroke: #000000; stroke-width: 1.875"/>
      </g>
     </g>
     <g id="text_3">
      <!-- 40 -->
      <g transform="translate(185.826175 277.938125) scale(0.12 -0.12)">
       <defs>
        <path id="DejaVuSans-34" d="M 2419 4116 
L 825 1625 
L 2419 1625 
L 2419 4116 
z
M 2253 4666 
L 3047 4666 
L 3047 1625 
L 3713 1625 
L 3713 1100 
L 3047 1100 
L 3047 0 
L 2419 0 
L 2419 1100 
L 313 1100 
L 313 1709 
L 2253 4666 
z
" transform="scale(0.015625)"/>
       </defs>
       <use xlink:href="#DejaVuSans-34"/>
       <use xlink:href="#DejaVuSans-30" x="63.623047"/>
      </g>
     </g>
    </g>
    <g id="xtick_4">
     <g id="line2d_4">
      <g>
       <use xlink:href="#m88a44ff966" x="255.582671" y="256.32" style="stroke: #000000; stroke-width: 1.875"/>
      </g>
     </g>
     <g id="text_4">
      <!-- 60 -->
      <g transform="translate(247.947671 277.938125) scale(0.12 -0.12)">
       <defs>
        <path id="DejaVuSans-36" d="M 2113 2584 
Q 1688 2584 1439 2293 
Q 1191 2003 1191 1497 
Q 1191 994 1439 701 
Q 1688 409 2113 409 
Q 2538 409 2786 701 
Q 3034 994 3034 1497 
Q 3034 2003 2786 2293 
Q 2538 2584 2113 2584 
z
M 3366 4563 
L 3366 3988 
Q 3128 4100 2886 4159 
Q 2644 4219 2406 4219 
Q 1781 4219 1451 3797 
Q 1122 3375 1075 2522 
Q 1259 2794 1537 2939 
Q 1816 3084 2150 3084 
Q 2853 3084 3261 2657 
Q 3669 2231 3669 1497 
Q 3669 778 3244 343 
Q 2819 -91 2113 -91 
Q 1303 -91 875 529 
Q 447 1150 447 2328 
Q 447 3434 972 4092 
Q 1497 4750 2381 4750 
Q 2619 4750 2861 4703 
Q 3103 4656 3366 4563 
z
" transform="scale(0.015625)"/>
       </defs>
       <use xlink:href="#DejaVuSans-36"/>
       <use xlink:href="#DejaVuSans-30" x="63.623047"/>
      </g>
     </g>
    </g>
    <g id="xtick_5">
     <g id="line2d_5">
      <g>
       <use xlink:href="#m88a44ff966" x="317.704168" y="256.32" style="stroke: #000000; stroke-width: 1.875"/>
      </g>
     </g>
     <g id="text_5">
      <!-- 80 -->
      <g transform="translate(310.069168 277.938125) scale(0.12 -0.12)">
       <defs>
        <path id="DejaVuSans-38" d="M 2034 2216 
Q 1584 2216 1326 1975 
Q 1069 1734 1069 1313 
Q 1069 891 1326 650 
Q 1584 409 2034 409 
Q 2484 409 2743 651 
Q 3003 894 3003 1313 
Q 3003 1734 2745 1975 
Q 2488 2216 2034 2216 
z
M 1403 2484 
Q 997 2584 770 2862 
Q 544 3141 544 3541 
Q 544 4100 942 4425 
Q 1341 4750 2034 4750 
Q 2731 4750 3128 4425 
Q 3525 4100 3525 3541 
Q 3525 3141 3298 2862 
Q 3072 2584 2669 2484 
Q 3125 2378 3379 2068 
Q 3634 1759 3634 1313 
Q 3634 634 3220 271 
Q 2806 -91 2034 -91 
Q 1263 -91 848 271 
Q 434 634 434 1313 
Q 434 1759 690 2068 
Q 947 2378 1403 2484 
z
M 1172 3481 
Q 1172 3119 1398 2916 
Q 1625 2713 2034 2713 
Q 2441 2713 2670 2916 
Q 2900 3119 2900 3481 
Q 2900 3844 2670 4047 
Q 2441 4250 2034 4250 
Q 1625 4250 1398 4047 
Q 1172 3844 1172 3481 
z
" transform="scale(0.015625)"/>
       </defs>
       <use xlink:href="#DejaVuSans-38"/>
       <use xlink:href="#DejaVuSans-30" x="63.623047"/>
      </g>
     </g>
    </g>
    <g id="xtick_6">
     <g id="line2d_6">
      <g>
       <use xlink:href="#m88a44ff966" x="379.825664" y="256.32" style="stroke: #000000; stroke-width: 1.875"/>
      </g>
     </g>
     <g id="text_6">
      <!-- 100 -->
      <g transform="translate(368.373164 277.938125) scale(0.12 -0.12)">
       <defs>
        <path id="DejaVuSans-31" d="M 794 531 
L 1825 531 
L 1825 4091 
L 703 3866 
L 703 4441 
L 1819 4666 
L 2450 4666 
L 2450 531 
L 3481 531 
L 3481 0 
L 794 0 
L 794 531 
z
" transform="scale(0.015625)"/>
       </defs>
       <use xlink:href="#DejaVuSans-31"/>
       <use xlink:href="#DejaVuSans-30" x="63.623047"/>
       <use xlink:href="#DejaVuSans-30" x="127.246094"/>
      </g>
     </g>
    </g>
    <g id="text_7">
     <!-- Distance du filet (pieds) -->
     <g transform="translate(135.190125 295.3755) scale(0.144 -0.144)">
      <defs>
       <path id="DejaVuSans-44" d="M 1259 4147 
L 1259 519 
L 2022 519 
Q 2988 519 3436 956 
Q 3884 1394 3884 2338 
Q 3884 3275 3436 3711 
Q 2988 4147 2022 4147 
L 1259 4147 
z
M 628 4666 
L 1925 4666 
Q 3281 4666 3915 4102 
Q 4550 3538 4550 2338 
Q 4550 1131 3912 565 
Q 3275 0 1925 0 
L 628 0 
L 628 4666 
z
" transform="scale(0.015625)"/>
       <path id="DejaVuSans-69" d="M 603 3500 
L 1178 3500 
L 1178 0 
L 603 0 
L 603 3500 
z
M 603 4863 
L 1178 4863 
L 1178 4134 
L 603 4134 
L 603 4863 
z
" transform="scale(0.015625)"/>
       <path id="DejaVuSans-73" d="M 2834 3397 
L 2834 2853 
Q 2591 2978 2328 3040 
Q 2066 3103 1784 3103 
Q 1356 3103 1142 2972 
Q 928 2841 928 2578 
Q 928 2378 1081 2264 
Q 1234 2150 1697 2047 
L 1894 2003 
Q 2506 1872 2764 1633 
Q 3022 1394 3022 966 
Q 3022 478 2636 193 
Q 2250 -91 1575 -91 
Q 1294 -91 989 -36 
Q 684 19 347 128 
L 347 722 
Q 666 556 975 473 
Q 1284 391 1588 391 
Q 1994 391 2212 530 
Q 2431 669 2431 922 
Q 2431 1156 2273 1281 
Q 2116 1406 1581 1522 
L 1381 1569 
Q 847 1681 609 1914 
Q 372 2147 372 2553 
Q 372 3047 722 3315 
Q 1072 3584 1716 3584 
Q 2034 3584 2315 3537 
Q 2597 3491 2834 3397 
z
" transform="scale(0.015625)"/>
       <path id="DejaVuSans-74" d="M 1172 4494 
L 1172 3500 
L 2356 3500 
L 2356 3053 
L 1172 3053 
L 1172 1153 
Q 1172 725 1289 603 
Q 1406 481 1766 481 
L 2356 481 
L 2356 0 
L 1766 0 
Q 1100 0 847 248 
Q 594 497 594 1153 
L 594 3053 
L 172 3053 
L 172 3500 
L 594 3500 
L 594 4494 
L 1172 4494 
z
" transform="scale(0.015625)"/>
       <path id="DejaVuSans-61" d="M 2194 1759 
Q 1497 1759 1228 1600 
Q 959 1441 959 1056 
Q 959 750 1161 570 
Q 1363 391 1709 391 
Q 2188 391 2477 730 
Q 2766 1069 2766 1631 
L 2766 1759 
L 2194 1759 
z
M 3341 1997 
L 3341 0 
L 2766 0 
L 2766 531 
Q 2569 213 2275 61 
Q 1981 -91 1556 -91 
Q 1019 -91 701 211 
Q 384 513 384 1019 
Q 384 1609 779 1909 
Q 1175 2209 1959 2209 
L 2766 2209 
L 2766 2266 
Q 2766 2663 2505 2880 
Q 2244 3097 1772 3097 
Q 1472 3097 1187 3025 
Q 903 2953 641 2809 
L 641 3341 
Q 956 3463 1253 3523 
Q 1550 3584 1831 3584 
Q 2591 3584 2966 3190 
Q 3341 2797 3341 1997 
z
" transform="scale(0.015625)"/>
       <path id="DejaVuSans-6e" d="M 3513 2113 
L 3513 0 
L 2938 0 
L 2938 2094 
Q 2938 2591 2744 2837 
Q 2550 3084 2163 3084 
Q 1697 3084 1428 2787 
Q 1159 2491 1159 1978 
L 1159 0 
L 581 0 
L 581 3500 
L 1159 3500 
L 1159 2956 
Q 1366 3272 1645 3428 
Q 1925 3584 2291 3584 
Q 2894 3584 3203 3211 
Q 3513 2838 3513 2113 
z
" transform="scale(0.015625)"/>
       <path id="DejaVuSans-63" d="M 3122 3366 
L 3122 2828 
Q 2878 2963 2633 3030 
Q 2388 3097 2138 3097 
Q 1578 3097 1268 2742 
Q 959 2388 959 1747 
Q 959 1106 1268 751 
Q 1578 397 2138 397 
Q 2388 397 2633 464 
Q 2878 531 3122 666 
L 3122 134 
Q 2881 22 2623 -34 
Q 2366 -91 2075 -91 
Q 1284 -91 818 406 
Q 353 903 353 1747 
Q 353 2603 823 3093 
Q 1294 3584 2113 3584 
Q 2378 3584 2631 3529 
Q 2884 3475 3122 3366 
z
" transform="scale(0.015625)"/>
       <path id="DejaVuSans-65" d="M 3597 1894 
L 3597 1613 
L 953 1613 
Q 991 1019 1311 708 
Q 1631 397 2203 397 
Q 2534 397 2845 478 
Q 3156 559 3463 722 
L 3463 178 
Q 3153 47 2828 -22 
Q 2503 -91 2169 -91 
Q 1331 -91 842 396 
Q 353 884 353 1716 
Q 353 2575 817 3079 
Q 1281 3584 2069 3584 
Q 2775 3584 3186 3129 
Q 3597 2675 3597 1894 
z
M 3022 2063 
Q 3016 2534 2758 2815 
Q 2500 3097 2075 3097 
Q 1594 3097 1305 2825 
Q 1016 2553 972 2059 
L 3022 2063 
z
" transform="scale(0.015625)"/>
       <path id="DejaVuSans-20" transform="scale(0.015625)"/>
       <path id="DejaVuSans-64" d="M 2906 2969 
L 2906 4863 
L 3481 4863 
L 3481 0 
L 2906 0 
L 2906 525 
Q 2725 213 2448 61 
Q 2172 -91 1784 -91 
Q 1150 -91 751 415 
Q 353 922 353 1747 
Q 353 2572 751 3078 
Q 1150 3584 1784 3584 
Q 2172 3584 2448 3432 
Q 2725 3281 2906 2969 
z
M 947 1747 
Q 947 1113 1208 752 
Q 1469 391 1925 391 
Q 2381 391 2643 752 
Q 2906 1113 2906 1747 
Q 2906 2381 2643 2742 
Q 2381 3103 1925 3103 
Q 1469 3103 1208 2742 
Q 947 2381 947 1747 
z
" transform="scale(0.015625)"/>
       <path id="DejaVuSans-75" d="M 544 1381 
L 544 3500 
L 1119 3500 
L 1119 1403 
Q 1119 906 1312 657 
Q 1506 409 1894 409 
Q 2359 409 2629 706 
Q 2900 1003 2900 1516 
L 2900 3500 
L 3475 3500 
L 3475 0 
L 2900 0 
L 2900 538 
Q 2691 219 2414 64 
Q 2138 -91 1772 -91 
Q 1169 -91 856 284 
Q 544 659 544 1381 
z
M 1991 3584 
L 1991 3584 
z
" transform="scale(0.015625)"/>
       <path id="DejaVuSans-66" d="M 2375 4863 
L 2375 4384 
L 1825 4384 
Q 1516 4384 1395 4259 
Q 1275 4134 1275 3809 
L 1275 3500 
L 2222 3500 
L 2222 3053 
L 1275 3053 
L 1275 0 
L 697 0 
L 697 3053 
L 147 3053 
L 147 3500 
L 697 3500 
L 697 3744 
Q 697 4328 969 4595 
Q 1241 4863 1831 4863 
L 2375 4863 
z
" transform="scale(0.015625)"/>
       <path id="DejaVuSans-6c" d="M 603 4863 
L 1178 4863 
L 1178 0 
L 603 0 
L 603 4863 
z
" transform="scale(0.015625)"/>
       <path id="DejaVuSans-28" d="M 1984 4856 
Q 1566 4138 1362 3434 
Q 1159 2731 1159 2009 
Q 1159 1288 1364 580 
Q 1569 -128 1984 -844 
L 1484 -844 
Q 1016 -109 783 600 
Q 550 1309 550 2009 
Q 550 2706 781 3412 
Q 1013 4119 1484 4856 
L 1984 4856 
z
" transform="scale(0.015625)"/>
       <path id="DejaVuSans-70" d="M 1159 525 
L 1159 -1331 
L 581 -1331 
L 581 3500 
L 1159 3500 
L 1159 2969 
Q 1341 3281 1617 3432 
Q 1894 3584 2278 3584 
Q 2916 3584 3314 3078 
Q 3713 2572 3713 1747 
Q 3713 922 3314 415 
Q 2916 -91 2278 -91 
Q 1894 -91 1617 61 
Q 1341 213 1159 525 
z
M 3116 1747 
Q 3116 2381 2855 2742 
Q 2594 3103 2138 3103 
Q 1681 3103 1420 2742 
Q 1159 2381 1159 1747 
Q 1159 1113 1420 752 
Q 1681 391 2138 391 
Q 2594 391 2855 752 
Q 3116 1113 3116 1747 
z
" transform="scale(0.015625)"/>
       <path id="DejaVuSans-29" d="M 513 4856 
L 1013 4856 
Q 1481 4119 1714 3412 
Q 1947 2706 1947 2009 
Q 1947 1309 1714 600 
Q 1481 -109 1013 -844 
L 513 -844 
Q 928 -128 1133 580 
Q 1338 1288 1338 2009 
Q 1338 2731 1133 3434 
Q 928 4138 513 4856 
z
" transform="scale(0.015625)"/>
      </defs>
      <use xlink:href="#DejaVuSans-44"/>
      <use xlink:href="#DejaVuSans-69" x="77.001953"/>
      <use xlink:href="#DejaVuSans-73" x="104.785156"/>
      <use xlink:href="#DejaVuSans-74" x="156.884766"/>
      <use xlink:href="#DejaVuSans-61" x="196.09375"/>
      <use xlink:href="#DejaVuSans-6e" x="257.373047"/>
      <use xlink:href="#DejaVuSans-63" x="320.751953"/>
      <use xlink:href="#DejaVuSans-65" x="375.732422"/>
      <use xlink:href="#DejaVuSans-20" x="437.255859"/>
      <use xlink:href="#DejaVuSans-64" x="469.042969"/>
      <use xlink:href="#DejaVuSans-75" x="532.519531"/>
      <use xlink:href="#DejaVuSans-20" x="595.898438"/>
      <use xlink:href="#DejaVuSans-66" x="627.685547"/>
      <use xlink:href="#DejaVuSans-69" x="662.890625"/>
      <use xlink:href="#DejaVuSans-6c" x="690.673828"/>
      <use xlink:href="#DejaVuSans-65" x="718.457031"/>
      <use xlink:href="#DejaVuSans-74" x="779.980469"/>
      <use xlink:href="#DejaVuSans-20" x="819.189453"/>
      <use xlink:href="#DejaVuSans-28" x="850.976562"/>
      <use xlink:href="#DejaVuSans-70" x="889.990234"/>
      <use xlink:href="#DejaVuSans-69" x="953.466797"/>
      <use xlink:href="#DejaVuSans-65" x="981.25"/>
      <use xlink:href="#DejaVuSans-64" x="1042.773438"/>
      <use xlink:href="#DejaVuSans-73" x="1106.25"/>
      <use xlink:href="#DejaVuSans-29" x="1158.349609"/>
     </g>
    </g>
   </g>
   <g id="matplotlib.axis_2">
    <g id="ytick_1">
     <g id="line2d_7">
      <defs>
       <path id="m577910d448" d="M 0 0 
L -9 0 
" style="stroke: #000000; stroke-width: 1.875"/>
      </defs>
      <g>
       <use xlink:href="#m577910d448" x="54" y="256.32" style="stroke: #000000; stroke-width: 1.875"/>
      </g>
     </g>
     <g id="text_8">
      <!-- 0 -->
      <g transform="translate(33.865 260.879063) scale(0.12 -0.12)">
       <use xlink:href="#DejaVuSans-30"/>
      </g>
     </g>
    </g>
    <g id="ytick_2">
     <g id="line2d_8">
      <g>
       <use xlink:href="#m577910d448" x="54" y="228.001416" style="stroke: #000000; stroke-width: 1.875"/>
      </g>
     </g>
     <g id="text_9">
      <!-- 2000 -->
      <g transform="translate(10.96 232.560478) scale(0.12 -0.12)">
       <use xlink:href="#DejaVuSans-32"/>
       <use xlink:href="#DejaVuSans-30" x="63.623047"/>
       <use xlink:href="#DejaVuSans-30" x="127.246094"/>
       <use xlink:href="#DejaVuSans-30" x="190.869141"/>
      </g>
     </g>
    </g>
    <g id="ytick_3">
     <g id="line2d_9">
      <g>
       <use xlink:href="#m577910d448" x="54" y="199.682832" style="stroke: #000000; stroke-width: 1.875"/>
      </g>
     </g>
     <g id="text_10">
      <!-- 4000 -->
      <g transform="translate(10.96 204.241894) scale(0.12 -0.12)">
       <use xlink:href="#DejaVuSans-34"/>
       <use xlink:href="#DejaVuSans-30" x="63.623047"/>
       <use xlink:href="#DejaVuSans-30" x="127.246094"/>
       <use xlink:href="#DejaVuSans-30" x="190.869141"/>
      </g>
     </g>
    </g>
    <g id="ytick_4">
     <g id="line2d_10">
      <g>
       <use xlink:href="#m577910d448" x="54" y="171.364248" style="stroke: #000000; stroke-width: 1.875"/>
      </g>
     </g>
     <g id="text_11">
      <!-- 6000 -->
      <g transform="translate(10.96 175.92331) scale(0.12 -0.12)">
       <use xlink:href="#DejaVuSans-36"/>
       <use xlink:href="#DejaVuSans-30" x="63.623047"/>
       <use xlink:href="#DejaVuSans-30" x="127.246094"/>
       <use xlink:href="#DejaVuSans-30" x="190.869141"/>
      </g>
     </g>
    </g>
    <g id="ytick_5">
     <g id="line2d_11">
      <g>
       <use xlink:href="#m577910d448" x="54" y="143.045664" style="stroke: #000000; stroke-width: 1.875"/>
      </g>
     </g>
     <g id="text_12">
      <!-- 8000 -->
      <g transform="translate(10.96 147.604726) scale(0.12 -0.12)">
       <use xlink:href="#DejaVuSans-38"/>
       <use xlink:href="#DejaVuSans-30" x="63.623047"/>
       <use xlink:href="#DejaVuSans-30" x="127.246094"/>
       <use xlink:href="#DejaVuSans-30" x="190.869141"/>
      </g>
     </g>
    </g>
    <g id="ytick_6">
     <g id="line2d_12">
      <g>
       <use xlink:href="#m577910d448" x="54" y="114.72708" style="stroke: #000000; stroke-width: 1.875"/>
      </g>
     </g>
     <g id="text_13">
      <!-- 10000 -->
      <g transform="translate(3.325 119.286142) scale(0.12 -0.12)">
       <use xlink:href="#DejaVuSans-31"/>
       <use xlink:href="#DejaVuSans-30" x="63.623047"/>
       <use xlink:href="#DejaVuSans-30" x="127.246094"/>
       <use xlink:href="#DejaVuSans-30" x="190.869141"/>
       <use xlink:href="#DejaVuSans-30" x="254.492188"/>
      </g>
     </g>
    </g>
    <g id="ytick_7">
     <g id="line2d_13">
      <g>
       <use xlink:href="#m577910d448" x="54" y="86.408496" style="stroke: #000000; stroke-width: 1.875"/>
      </g>
     </g>
     <g id="text_14">
      <!-- 12000 -->
      <g transform="translate(3.325 90.967558) scale(0.12 -0.12)">
       <use xlink:href="#DejaVuSans-31"/>
       <use xlink:href="#DejaVuSans-32" x="63.623047"/>
       <use xlink:href="#DejaVuSans-30" x="127.246094"/>
       <use xlink:href="#DejaVuSans-30" x="190.869141"/>
       <use xlink:href="#DejaVuSans-30" x="254.492188"/>
      </g>
     </g>
    </g>
    <g id="ytick_8">
     <g id="line2d_14">
      <g>
       <use xlink:href="#m577910d448" x="54" y="58.089912" style="stroke: #000000; stroke-width: 1.875"/>
      </g>
     </g>
     <g id="text_15">
      <!-- 14000 -->
      <g transform="translate(3.325 62.648974) scale(0.12 -0.12)">
       <use xlink:href="#DejaVuSans-31"/>
       <use xlink:href="#DejaVuSans-34" x="63.623047"/>
       <use xlink:href="#DejaVuSans-30" x="127.246094"/>
       <use xlink:href="#DejaVuSans-30" x="190.869141"/>
       <use xlink:href="#DejaVuSans-30" x="254.492188"/>
      </g>
     </g>
    </g>
    <g id="text_16">
     <!-- Nombre de tirs -->
     <g transform="translate(-3.66975 199.155375) rotate(-90) scale(0.144 -0.144)">
      <defs>
       <path id="DejaVuSans-4e" d="M 628 4666 
L 1478 4666 
L 3547 763 
L 3547 4666 
L 4159 4666 
L 4159 0 
L 3309 0 
L 1241 3903 
L 1241 0 
L 628 0 
L 628 4666 
z
" transform="scale(0.015625)"/>
       <path id="DejaVuSans-6f" d="M 1959 3097 
Q 1497 3097 1228 2736 
Q 959 2375 959 1747 
Q 959 1119 1226 758 
Q 1494 397 1959 397 
Q 2419 397 2687 759 
Q 2956 1122 2956 1747 
Q 2956 2369 2687 2733 
Q 2419 3097 1959 3097 
z
M 1959 3584 
Q 2709 3584 3137 3096 
Q 3566 2609 3566 1747 
Q 3566 888 3137 398 
Q 2709 -91 1959 -91 
Q 1206 -91 779 398 
Q 353 888 353 1747 
Q 353 2609 779 3096 
Q 1206 3584 1959 3584 
z
" transform="scale(0.015625)"/>
       <path id="DejaVuSans-6d" d="M 3328 2828 
Q 3544 3216 3844 3400 
Q 4144 3584 4550 3584 
Q 5097 3584 5394 3201 
Q 5691 2819 5691 2113 
L 5691 0 
L 5113 0 
L 5113 2094 
Q 5113 2597 4934 2840 
Q 4756 3084 4391 3084 
Q 3944 3084 3684 2787 
Q 3425 2491 3425 1978 
L 3425 0 
L 2847 0 
L 2847 2094 
Q 2847 2600 2669 2842 
Q 2491 3084 2119 3084 
Q 1678 3084 1418 2786 
Q 1159 2488 1159 1978 
L 1159 0 
L 581 0 
L 581 3500 
L 1159 3500 
L 1159 2956 
Q 1356 3278 1631 3431 
Q 1906 3584 2284 3584 
Q 2666 3584 2933 3390 
Q 3200 3197 3328 2828 
z
" transform="scale(0.015625)"/>
       <path id="DejaVuSans-62" d="M 3116 1747 
Q 3116 2381 2855 2742 
Q 2594 3103 2138 3103 
Q 1681 3103 1420 2742 
Q 1159 2381 1159 1747 
Q 1159 1113 1420 752 
Q 1681 391 2138 391 
Q 2594 391 2855 752 
Q 3116 1113 3116 1747 
z
M 1159 2969 
Q 1341 3281 1617 3432 
Q 1894 3584 2278 3584 
Q 2916 3584 3314 3078 
Q 3713 2572 3713 1747 
Q 3713 922 3314 415 
Q 2916 -91 2278 -91 
Q 1894 -91 1617 61 
Q 1341 213 1159 525 
L 1159 0 
L 581 0 
L 581 4863 
L 1159 4863 
L 1159 2969 
z
" transform="scale(0.015625)"/>
       <path id="DejaVuSans-72" d="M 2631 2963 
Q 2534 3019 2420 3045 
Q 2306 3072 2169 3072 
Q 1681 3072 1420 2755 
Q 1159 2438 1159 1844 
L 1159 0 
L 581 0 
L 581 3500 
L 1159 3500 
L 1159 2956 
Q 1341 3275 1631 3429 
Q 1922 3584 2338 3584 
Q 2397 3584 2469 3576 
Q 2541 3569 2628 3553 
L 2631 2963 
z
" transform="scale(0.015625)"/>
      </defs>
      <use xlink:href="#DejaVuSans-4e"/>
      <use xlink:href="#DejaVuSans-6f" x="74.804688"/>
      <use xlink:href="#DejaVuSans-6d" x="135.986328"/>
      <use xlink:href="#DejaVuSans-62" x="233.398438"/>
      <use xlink:href="#DejaVuSans-72" x="296.875"/>
      <use xlink:href="#DejaVuSans-65" x="335.738281"/>
      <use xlink:href="#DejaVuSans-20" x="397.261719"/>
      <use xlink:href="#DejaVuSans-64" x="429.048828"/>
      <use xlink:href="#DejaVuSans-65" x="492.525391"/>
      <use xlink:href="#DejaVuSans-20" x="554.048828"/>
      <use xlink:href="#DejaVuSans-74" x="585.835938"/>
      <use xlink:href="#DejaVuSans-69" x="625.044922"/>
      <use xlink:href="#DejaVuSans-72" x="652.828125"/>
      <use xlink:href="#DejaVuSans-73" x="693.941406"/>
     </g>
    </g>
   </g>
   <g id="patch_103">
    <path d="M 54 256.32 
L 54 34.56 
" style="fill: none; stroke: #000000; stroke-width: 1.875; stroke-linejoin: miter; stroke-linecap: square"/>
   </g>
   <g id="patch_104">
    <path d="M 54 256.32 
L 388.8 256.32 
" style="fill: none; stroke: #000000; stroke-width: 1.875; stroke-linejoin: miter; stroke-linecap: square"/>
   </g>
   <g id="text_17">
    <!-- Nombre de tirs et buts selon distance du filet -->
    <g transform="translate(85.57875 28.56) scale(0.12 -0.12)">
     <use xlink:href="#DejaVuSans-4e"/>
     <use xlink:href="#DejaVuSans-6f" x="74.804688"/>
     <use xlink:href="#DejaVuSans-6d" x="135.986328"/>
     <use xlink:href="#DejaVuSans-62" x="233.398438"/>
     <use xlink:href="#DejaVuSans-72" x="296.875"/>
     <use xlink:href="#DejaVuSans-65" x="335.738281"/>
     <use xlink:href="#DejaVuSans-20" x="397.261719"/>
     <use xlink:href="#DejaVuSans-64" x="429.048828"/>
     <use xlink:href="#DejaVuSans-65" x="492.525391"/>
     <use xlink:href="#DejaVuSans-20" x="554.048828"/>
     <use xlink:href="#DejaVuSans-74" x="585.835938"/>
     <use xlink:href="#DejaVuSans-69" x="625.044922"/>
     <use xlink:href="#DejaVuSans-72" x="652.828125"/>
     <use xlink:href="#DejaVuSans-73" x="693.941406"/>
     <use xlink:href="#DejaVuSans-20" x="746.041016"/>
     <use xlink:href="#DejaVuSans-65" x="777.828125"/>
     <use xlink:href="#DejaVuSans-74" x="839.351562"/>
     <use xlink:href="#DejaVuSans-20" x="878.560547"/>
     <use xlink:href="#DejaVuSans-62" x="910.347656"/>
     <use xlink:href="#DejaVuSans-75" x="973.824219"/>
     <use xlink:href="#DejaVuSans-74" x="1037.203125"/>
     <use xlink:href="#DejaVuSans-73" x="1076.412109"/>
     <use xlink:href="#DejaVuSans-20" x="1128.511719"/>
     <use xlink:href="#DejaVuSans-73" x="1160.298828"/>
     <use xlink:href="#DejaVuSans-65" x="1212.398438"/>
     <use xlink:href="#DejaVuSans-6c" x="1273.921875"/>
     <use xlink:href="#DejaVuSans-6f" x="1301.705078"/>
     <use xlink:href="#DejaVuSans-6e" x="1362.886719"/>
     <use xlink:href="#DejaVuSans-20" x="1426.265625"/>
     <use xlink:href="#DejaVuSans-64" x="1458.052734"/>
     <use xlink:href="#DejaVuSans-69" x="1521.529297"/>
     <use xlink:href="#DejaVuSans-73" x="1549.3125"/>
     <use xlink:href="#DejaVuSans-74" x="1601.412109"/>
     <use xlink:href="#DejaVuSans-61" x="1640.621094"/>
     <use xlink:href="#DejaVuSans-6e" x="1701.900391"/>
     <use xlink:href="#DejaVuSans-63" x="1765.279297"/>
     <use xlink:href="#DejaVuSans-65" x="1820.259766"/>
     <use xlink:href="#DejaVuSans-20" x="1881.783203"/>
     <use xlink:href="#DejaVuSans-64" x="1913.570312"/>
     <use xlink:href="#DejaVuSans-75" x="1977.046875"/>
     <use xlink:href="#DejaVuSans-20" x="2040.425781"/>
     <use xlink:href="#DejaVuSans-66" x="2072.212891"/>
     <use xlink:href="#DejaVuSans-69" x="2107.417969"/>
     <use xlink:href="#DejaVuSans-6c" x="2135.201172"/>
     <use xlink:href="#DejaVuSans-65" x="2162.984375"/>
     <use xlink:href="#DejaVuSans-74" x="2224.507812"/>
    </g>
   </g>
   <g id="legend_1">
    <g id="patch_105">
     <path d="M 294.33375 79.3875 
L 380.4 79.3875 
Q 382.8 79.3875 382.8 76.9875 
L 382.8 42.96 
Q 382.8 40.56 380.4 40.56 
L 294.33375 40.56 
Q 291.93375 40.56 291.93375 42.96 
L 291.93375 76.9875 
Q 291.93375 79.3875 294.33375 79.3875 
z
" style="fill: #ffffff; opacity: 0.8; stroke: #cccccc; stroke-width: 1.5; stroke-linejoin: miter"/>
    </g>
    <g id="patch_106">
     <path d="M 296.73375 54.478125 
L 320.73375 54.478125 
L 320.73375 46.078125 
L 296.73375 46.078125 
z
" style="fill: #1f77b4"/>
    </g>
    <g id="text_18">
     <!-- Non but -->
     <g transform="translate(330.33375 54.478125) scale(0.12 -0.12)">
      <use xlink:href="#DejaVuSans-4e"/>
      <use xlink:href="#DejaVuSans-6f" x="74.804688"/>
      <use xlink:href="#DejaVuSans-6e" x="135.986328"/>
      <use xlink:href="#DejaVuSans-20" x="199.365234"/>
      <use xlink:href="#DejaVuSans-62" x="231.152344"/>
      <use xlink:href="#DejaVuSans-75" x="294.628906"/>
      <use xlink:href="#DejaVuSans-74" x="358.007812"/>
     </g>
    </g>
    <g id="patch_107">
     <path d="M 296.73375 72.091875 
L 320.73375 72.091875 
L 320.73375 63.691875 
L 296.73375 63.691875 
z
" style="fill: #ff7f0e"/>
    </g>
    <g id="text_19">
     <!-- But -->
     <g transform="translate(330.33375 72.091875) scale(0.12 -0.12)">
      <defs>
       <path id="DejaVuSans-42" d="M 1259 2228 
L 1259 519 
L 2272 519 
Q 2781 519 3026 730 
Q 3272 941 3272 1375 
Q 3272 1813 3026 2020 
Q 2781 2228 2272 2228 
L 1259 2228 
z
M 1259 4147 
L 1259 2741 
L 2194 2741 
Q 2656 2741 2882 2914 
Q 3109 3088 3109 3444 
Q 3109 3797 2882 3972 
Q 2656 4147 2194 4147 
L 1259 4147 
z
M 628 4666 
L 2241 4666 
Q 2963 4666 3353 4366 
Q 3744 4066 3744 3513 
Q 3744 3084 3544 2831 
Q 3344 2578 2956 2516 
Q 3422 2416 3680 2098 
Q 3938 1781 3938 1306 
Q 3938 681 3513 340 
Q 3088 0 2303 0 
L 628 0 
L 628 4666 
z
" transform="scale(0.015625)"/>
      </defs>
      <use xlink:href="#DejaVuSans-42"/>
      <use xlink:href="#DejaVuSans-75" x="68.603516"/>
      <use xlink:href="#DejaVuSans-74" x="131.982422"/>
     </g>
    </g>
   </g>
  </g>
 </g>
 <defs>
  <clipPath id="p04baaaf674">
   <rect x="54" y="34.56" width="334.8" height="221.76"/>
  </clipPath>
 </defs>
</svg>
